<svg xmlns="http://www.w3.org/2000/svg" xmlns:xlink="http://www.w3.org/1999/xlink" width="500" zoomAndPan="magnify" viewBox="0 0 375 374.999991" height="500" preserveAspectRatio="xMidYMid meet" version="1.0"><defs><g/><clipPath id="cd99a538f5"><path d="M 95.683594 124 L 245.683594 124 L 245.683594 203 L 95.683594 203 Z M 95.683594 124 " clip-rule="nonzero"/></clipPath><clipPath id="a83668d080"><path d="M 155 194 L 172 194 L 172 210.378906 L 155 210.378906 Z M 155 194 " clip-rule="nonzero"/></clipPath><clipPath id="8991809911"><path d="M 226 221 L 281 221 L 281 276 L 226 276 Z M 226 221 " clip-rule="nonzero"/></clipPath><clipPath id="5a57fa2277"><path d="M 216.988281 242.292969 L 246.554688 210.382812 L 283.410156 244.539062 L 253.84375 276.445312 Z M 216.988281 242.292969 " clip-rule="nonzero"/></clipPath><clipPath id="6f348df0cb"><path d="M 216.988281 242.292969 L 246.554688 210.382812 L 283.410156 244.539062 L 253.84375 276.445312 Z M 216.988281 242.292969 " clip-rule="nonzero"/></clipPath><clipPath id="57c7e74453"><path d="M 216.988281 242.292969 L 246.554688 210.382812 L 283.410156 244.539062 L 253.84375 276.445312 Z M 216.988281 242.292969 " clip-rule="nonzero"/></clipPath><clipPath id="e6f1169c23"><path d="M 235 221 L 281 221 L 281 252 L 235 252 Z M 235 221 " clip-rule="nonzero"/></clipPath><clipPath id="37d3372939"><path d="M 216.988281 242.292969 L 246.554688 210.382812 L 283.410156 244.539062 L 253.84375 276.445312 Z M 216.988281 242.292969 " clip-rule="nonzero"/></clipPath><clipPath id="e482237451"><path d="M 216.988281 242.292969 L 246.554688 210.382812 L 283.410156 244.539062 L 253.84375 276.445312 Z M 216.988281 242.292969 " clip-rule="nonzero"/></clipPath><clipPath id="f9ba2ac7e0"><path d="M 216.988281 242.292969 L 246.554688 210.382812 L 283.410156 244.539062 L 253.84375 276.445312 Z M 216.988281 242.292969 " clip-rule="nonzero"/></clipPath><clipPath id="c575b94446"><path d="M 223.023438 247.949219 L 252.640625 215.984375 L 283.414062 244.5 L 253.792969 276.464844 Z M 223.023438 247.949219 " clip-rule="nonzero"/></clipPath><clipPath id="71ba531b6d"><path d="M 248.8125 221.050781 L 226.285156 244.507812 L 253.332031 275.972656 L 279.011719 249.246094 L 280.410156 241.757812 Z M 248.8125 221.050781 " clip-rule="evenodd"/></clipPath><clipPath id="2ee7855be7"><path d="M 273 239 L 281 239 L 281 251 L 273 251 Z M 273 239 " clip-rule="nonzero"/></clipPath><clipPath id="9d054d9c0b"><path d="M 216.988281 242.292969 L 246.554688 210.382812 L 283.410156 244.539062 L 253.84375 276.445312 Z M 216.988281 242.292969 " clip-rule="nonzero"/></clipPath><clipPath id="ce4ef4192a"><path d="M 216.988281 242.292969 L 246.554688 210.382812 L 283.410156 244.539062 L 253.84375 276.445312 Z M 216.988281 242.292969 " clip-rule="nonzero"/></clipPath><clipPath id="df15005d17"><path d="M 216.988281 242.292969 L 246.554688 210.382812 L 283.410156 244.539062 L 253.84375 276.445312 Z M 216.988281 242.292969 " clip-rule="nonzero"/></clipPath><clipPath id="0b6d5bcf8f"><path d="M 223.023438 247.949219 L 252.640625 215.984375 L 283.414062 244.5 L 253.792969 276.464844 Z M 223.023438 247.949219 " clip-rule="nonzero"/></clipPath><clipPath id="87c6211a6f"><path d="M 248.8125 221.050781 L 226.285156 244.507812 L 253.332031 275.972656 L 279.011719 249.246094 L 280.410156 241.757812 Z M 248.8125 221.050781 " clip-rule="evenodd"/></clipPath><clipPath id="3ad73505d9"><path d="M 234.992188 210.839844 L 241.160156 204.179688 L 286.480469 246.175781 L 280.3125 252.835938 Z M 234.992188 210.839844 " clip-rule="nonzero"/></clipPath><clipPath id="1a75c0e39c"><path d="M 235.019531 210.859375 L 281.5625 251.394531 L 283.421875 243.339844 L 241.398438 206.117188 Z M 235.019531 210.859375 " clip-rule="evenodd"/></clipPath><clipPath id="b845780595"><path d="M 229 224 L 236 224 L 236 232 L 229 232 Z M 229 224 " clip-rule="nonzero"/></clipPath><clipPath id="7635fcd542"><path d="M 216.988281 242.292969 L 246.554688 210.382812 L 283.410156 244.539062 L 253.84375 276.445312 Z M 216.988281 242.292969 " clip-rule="nonzero"/></clipPath><clipPath id="462cb18331"><path d="M 216.988281 242.292969 L 246.554688 210.382812 L 283.410156 244.539062 L 253.84375 276.445312 Z M 216.988281 242.292969 " clip-rule="nonzero"/></clipPath><clipPath id="4799224e54"><path d="M 216.988281 242.292969 L 246.554688 210.382812 L 283.410156 244.539062 L 253.84375 276.445312 Z M 216.988281 242.292969 " clip-rule="nonzero"/></clipPath><clipPath id="7d31610095"><path d="M 228 229 L 236 229 L 236 243 L 228 243 Z M 228 229 " clip-rule="nonzero"/></clipPath><clipPath id="53beae8deb"><path d="M 216.988281 242.292969 L 246.554688 210.382812 L 283.410156 244.539062 L 253.84375 276.445312 Z M 216.988281 242.292969 " clip-rule="nonzero"/></clipPath><clipPath id="0380571808"><path d="M 216.988281 242.292969 L 246.554688 210.382812 L 283.410156 244.539062 L 253.84375 276.445312 Z M 216.988281 242.292969 " clip-rule="nonzero"/></clipPath><clipPath id="1212cded94"><path d="M 216.988281 242.292969 L 246.554688 210.382812 L 283.410156 244.539062 L 253.84375 276.445312 Z M 216.988281 242.292969 " clip-rule="nonzero"/></clipPath><clipPath id="db05727b10"><path d="M 232 224 L 247 224 L 247 231 L 232 231 Z M 232 224 " clip-rule="nonzero"/></clipPath><clipPath id="15654025c4"><path d="M 216.988281 242.292969 L 246.554688 210.382812 L 283.410156 244.539062 L 253.84375 276.445312 Z M 216.988281 242.292969 " clip-rule="nonzero"/></clipPath><clipPath id="487012d7e7"><path d="M 216.988281 242.292969 L 246.554688 210.382812 L 283.410156 244.539062 L 253.84375 276.445312 Z M 216.988281 242.292969 " clip-rule="nonzero"/></clipPath><clipPath id="869a4b8a42"><path d="M 216.988281 242.292969 L 246.554688 210.382812 L 283.410156 244.539062 L 253.84375 276.445312 Z M 216.988281 242.292969 " clip-rule="nonzero"/></clipPath></defs><g clip-path="url(#cd99a538f5)"><path fill="#5271ff" d="M 245.367188 143.441406 L 245.367188 143.699219 C 245.363281 146.140625 245.214844 148.574219 244.914062 151 C 244.609375 153.425781 244.160156 155.820312 243.566406 158.191406 C 242.96875 160.5625 242.230469 162.886719 241.34375 165.164062 C 240.460938 167.441406 239.441406 169.65625 238.285156 171.808594 C 237.128906 173.960938 235.847656 176.035156 234.433594 178.03125 C 233.023438 180.023438 231.492188 181.925781 229.847656 183.730469 C 228.203125 185.539062 226.449219 187.234375 224.59375 188.824219 C 222.742188 190.414062 220.792969 191.886719 218.757812 193.238281 C 217.40625 192.457031 215.949219 192.066406 214.386719 192.066406 C 213.855469 192.070312 213.332031 192.117188 212.808594 192.214844 C 212.289062 192.3125 211.78125 192.453125 211.285156 192.640625 C 210.789062 192.828125 210.3125 193.058594 209.859375 193.332031 C 209.402344 193.605469 208.976562 193.914062 208.578125 194.265625 C 208.179688 194.613281 207.8125 194.996094 207.484375 195.410156 C 207.152344 195.824219 206.859375 196.265625 206.609375 196.730469 C 206.359375 197.199219 206.148438 197.683594 205.984375 198.1875 C 205.820312 198.691406 205.699219 199.207031 205.628906 199.730469 C 200.265625 201.582031 194.753906 202.621094 189.085938 202.851562 C 183.417969 203.085938 177.835938 202.496094 172.34375 201.085938 C 172.277344 200.550781 172.167969 200.027344 172.007812 199.515625 C 171.847656 199.003906 171.644531 198.511719 171.394531 198.035156 C 171.144531 197.558594 170.855469 197.109375 170.527344 196.6875 C 170.195312 196.265625 169.828125 195.875 169.429688 195.515625 C 169.027344 195.160156 168.597656 194.84375 168.140625 194.5625 C 167.683594 194.285156 167.203125 194.046875 166.699219 193.855469 C 166.199219 193.664062 165.6875 193.519531 165.15625 193.417969 C 164.628906 193.320312 164.097656 193.269531 163.5625 193.265625 C 162.546875 193.265625 161.566406 193.4375 160.609375 193.777344 C 159.65625 194.117188 158.789062 194.609375 158.003906 195.253906 C 155.746094 193.960938 153.578125 192.523438 151.507812 190.945312 C 149.4375 189.363281 147.476562 187.65625 145.632812 185.820312 C 143.785156 183.984375 142.066406 182.03125 140.476562 179.96875 C 138.886719 177.90625 137.4375 175.746094 136.132812 173.496094 C 134.828125 171.242188 133.675781 168.910156 132.675781 166.507812 C 131.675781 164.101562 130.839844 161.640625 130.164062 159.125 C 129.488281 156.609375 128.980469 154.058594 128.640625 151.476562 C 128.300781 148.894531 128.128906 146.300781 128.132812 143.699219 C 128.132812 143.289062 128.089844 142.882812 128.011719 142.480469 C 127.929688 142.078125 127.8125 141.6875 127.65625 141.308594 C 127.5 140.929688 127.304688 140.570312 127.078125 140.226562 C 126.851562 139.886719 126.59375 139.570312 126.300781 139.28125 C 126.011719 138.992188 125.695312 138.734375 125.355469 138.503906 C 125.015625 138.277344 124.65625 138.085938 124.277344 137.929688 C 123.898438 137.769531 123.507812 137.652344 123.105469 137.574219 C 122.703125 137.492188 122.296875 137.453125 121.886719 137.453125 L 101.929688 137.453125 C 101.519531 137.453125 101.113281 137.414062 100.710938 137.332031 C 100.308594 137.253906 99.917969 137.132812 99.539062 136.976562 C 99.160156 136.820312 98.800781 136.628906 98.460938 136.402344 C 98.117188 136.171875 97.804688 135.914062 97.511719 135.625 C 97.222656 135.332031 96.964844 135.019531 96.738281 134.675781 C 96.507812 134.335938 96.316406 133.976562 96.160156 133.597656 C 96.003906 133.21875 95.882812 132.828125 95.804688 132.425781 C 95.722656 132.023438 95.683594 131.617188 95.683594 131.207031 L 95.683594 130.351562 C 95.683594 129.941406 95.722656 129.535156 95.804688 129.132812 C 95.882812 128.730469 96.003906 128.34375 96.160156 127.964844 C 96.316406 127.585938 96.507812 127.222656 96.738281 126.882812 C 96.964844 126.542969 97.222656 126.226562 97.511719 125.9375 C 97.804688 125.648438 98.117188 125.386719 98.460938 125.160156 C 98.800781 124.933594 99.160156 124.742188 99.539062 124.582031 C 99.917969 124.425781 100.308594 124.308594 100.710938 124.226562 C 101.113281 124.148438 101.519531 124.109375 101.929688 124.109375 L 135.097656 124.109375 C 135.507812 124.109375 135.910156 124.148438 136.3125 124.226562 C 136.714844 124.308594 137.105469 124.425781 137.484375 124.582031 C 137.863281 124.742188 138.222656 124.933594 138.566406 125.160156 C 138.90625 125.386719 139.222656 125.648438 139.511719 125.9375 C 139.800781 126.226562 140.058594 126.542969 140.289062 126.882812 C 140.515625 127.222656 140.707031 127.585938 140.863281 127.964844 C 141.023438 128.34375 141.140625 128.730469 141.21875 129.132812 C 141.300781 129.535156 141.339844 129.941406 141.339844 130.351562 L 141.339844 143.699219 C 141.339844 146.703125 141.628906 149.675781 142.210938 152.625 C 142.792969 155.574219 143.65625 158.433594 144.800781 161.210938 C 145.945312 163.992188 147.351562 166.628906 149.015625 169.132812 C 150.675781 171.632812 152.566406 173.949219 154.683594 176.082031 C 156.777344 178.210938 159.058594 180.113281 161.527344 181.789062 C 164 183.46875 166.609375 184.882812 169.363281 186.039062 C 172.113281 187.199219 174.953125 188.070312 177.878906 188.664062 C 180.804688 189.257812 183.761719 189.554688 186.746094 189.558594 C 199.21875 189.558594 210.570312 184.394531 218.8125 176.082031 C 220.929688 173.949219 222.816406 171.632812 224.480469 169.128906 C 226.140625 166.628906 227.546875 163.988281 228.691406 161.210938 C 229.832031 158.433594 230.699219 155.570312 231.28125 152.625 C 231.863281 149.675781 232.15625 146.703125 232.152344 143.699219 L 232.152344 143.441406 C 232.15625 143.03125 232.195312 142.625 232.273438 142.226562 C 232.355469 141.824219 232.472656 141.433594 232.628906 141.054688 C 232.785156 140.675781 232.980469 140.316406 233.207031 139.972656 C 233.433594 139.632812 233.695312 139.316406 233.984375 139.027344 C 234.273438 138.738281 234.589844 138.480469 234.929688 138.25 C 235.269531 138.023438 235.628906 137.832031 236.007812 137.675781 C 236.386719 137.515625 236.777344 137.398438 237.179688 137.320312 C 237.582031 137.238281 237.988281 137.199219 238.398438 137.199219 L 239.121094 137.199219 C 239.53125 137.199219 239.9375 137.238281 240.339844 137.320312 C 240.742188 137.398438 241.132812 137.515625 241.511719 137.675781 C 241.890625 137.832031 242.25 138.023438 242.589844 138.25 C 242.929688 138.480469 243.246094 138.738281 243.535156 139.027344 C 243.828125 139.316406 244.085938 139.632812 244.3125 139.972656 C 244.542969 140.316406 244.734375 140.675781 244.890625 141.054688 C 245.046875 141.433594 245.164062 141.824219 245.246094 142.226562 C 245.324219 142.625 245.367188 143.03125 245.367188 143.441406 Z M 245.367188 143.441406 " fill-opacity="1" fill-rule="nonzero"/></g><path fill="#004aad" d="M 149.730469 103.160156 L 155.582031 173.292969 L 155.648438 173.359375 C 156.65625 174.386719 157.714844 175.363281 158.820312 176.285156 C 159.925781 177.210938 161.074219 178.074219 162.265625 178.886719 C 163.457031 179.695312 164.683594 180.441406 165.949219 181.128906 C 167.214844 181.816406 168.511719 182.4375 169.839844 182.996094 C 171.167969 183.550781 172.519531 184.042969 173.898438 184.464844 C 175.273438 184.890625 176.667969 185.242188 178.078125 185.527344 C 179.492188 185.8125 180.914062 186.023438 182.347656 186.167969 C 183.777344 186.3125 185.214844 186.382812 186.65625 186.382812 C 188.09375 186.382812 189.53125 186.3125 190.964844 186.167969 C 192.398438 186.023438 193.820312 185.8125 195.230469 185.527344 C 196.644531 185.242188 198.039062 184.890625 199.414062 184.464844 C 200.789062 184.042969 202.140625 183.550781 203.46875 182.996094 C 204.796875 182.4375 206.09375 181.816406 207.359375 181.128906 C 208.625 180.441406 209.855469 179.695312 211.046875 178.886719 C 212.238281 178.074219 213.386719 177.210938 214.492188 176.285156 C 215.597656 175.363281 216.652344 174.386719 217.660156 173.359375 C 221.390625 169.597656 224.355469 165.304688 226.550781 160.484375 C 225.800781 155.640625 223.835938 151.707031 220.660156 148.6875 C 217.054688 145.257812 212.144531 143.234375 205.929688 142.617188 C 211.253906 140.613281 215.199219 137.765625 217.765625 134.0625 C 220.34375 130.367188 221.398438 125.898438 220.964844 120.691406 C 220.316406 112.914062 217.097656 107.296875 211.304688 103.839844 C 205.519531 100.371094 197.214844 99.105469 186.390625 100.039062 Z M 187.9375 152.785156 C 192.523438 152.398438 196.035156 152.976562 198.480469 154.519531 C 200.921875 156.054688 202.292969 158.558594 202.589844 162.03125 C 202.878906 165.554688 201.835938 168.355469 199.484375 170.414062 C 197.117188 172.480469 193.5 173.707031 188.636719 174.121094 L 179.246094 174.921875 L 177.460938 153.679688 Z M 183.378906 137.039062 L 176.125 137.652344 L 174.449219 117.453125 L 182.824219 116.746094 C 187.40625 116.359375 190.933594 116.878906 193.445312 118.332031 C 195.929688 119.800781 197.308594 122.128906 197.582031 125.3125 C 197.871094 128.820312 196.839844 131.558594 194.488281 133.492188 C 192.109375 135.414062 188.425781 136.601562 183.378906 137.039062 Z M 183.378906 137.039062 " fill-opacity="1" fill-rule="evenodd"/><g clip-path="url(#a83668d080)"><path fill="#5271ff" d="M 163.425781 210.3125 C 163.949219 210.316406 164.46875 210.273438 164.984375 210.175781 C 165.5 210.078125 166.003906 209.929688 166.488281 209.734375 C 166.976562 209.535156 167.441406 209.292969 167.878906 209.007812 C 168.316406 208.71875 168.726562 208.390625 169.097656 208.023438 C 169.472656 207.652344 169.808594 207.253906 170.105469 206.820312 C 170.398438 206.382812 170.648438 205.925781 170.851562 205.441406 C 171.058594 204.957031 171.214844 204.460938 171.320312 203.945312 C 171.425781 203.429688 171.480469 202.910156 171.484375 202.386719 C 171.488281 201.859375 171.4375 201.339844 171.339844 200.824219 C 171.242188 200.308594 171.09375 199.808594 170.894531 199.320312 C 170.695312 198.835938 170.453125 198.375 170.164062 197.9375 C 169.875 197.496094 169.542969 197.09375 169.175781 196.71875 C 168.804688 196.34375 168.402344 196.011719 167.96875 195.71875 C 167.53125 195.425781 167.074219 195.175781 166.589844 194.972656 C 166.105469 194.769531 165.605469 194.617188 165.089844 194.511719 C 164.574219 194.40625 164.054688 194.355469 163.53125 194.351562 C 163.003906 194.351562 162.484375 194.402344 161.96875 194.503906 C 161.453125 194.601562 160.953125 194.753906 160.46875 194.953125 C 159.984375 195.152344 159.523438 195.398438 159.085938 195.6875 C 158.648438 195.980469 158.242188 196.308594 157.871094 196.679688 C 157.5 197.050781 157.167969 197.457031 156.875 197.890625 C 156.582031 198.328125 156.335938 198.789062 156.132812 199.273438 C 155.933594 199.757812 155.78125 200.257812 155.679688 200.773438 C 155.574219 201.289062 155.523438 201.808594 155.523438 202.332031 C 155.523438 202.855469 155.570312 203.371094 155.667969 203.882812 C 155.769531 204.394531 155.917969 204.890625 156.113281 205.375 C 156.3125 205.855469 156.554688 206.316406 156.839844 206.75 C 157.128906 207.183594 157.457031 207.585938 157.824219 207.957031 C 158.191406 208.328125 158.589844 208.660156 159.019531 208.949219 C 159.453125 209.242188 159.910156 209.488281 160.390625 209.691406 C 160.871094 209.894531 161.367188 210.046875 161.875 210.152344 C 162.386719 210.253906 162.902344 210.308594 163.425781 210.3125 Z M 163.425781 210.3125 " fill-opacity="1" fill-rule="evenodd"/></g><path fill="#5271ff" d="M 214.523438 209.050781 C 215.050781 209.058594 215.570312 209.011719 216.085938 208.914062 C 216.601562 208.816406 217.101562 208.667969 217.589844 208.472656 C 218.078125 208.277344 218.539062 208.035156 218.980469 207.746094 C 219.417969 207.457031 219.824219 207.128906 220.199219 206.761719 C 220.574219 206.394531 220.910156 205.992188 221.203125 205.558594 C 221.5 205.125 221.75 204.664062 221.953125 204.179688 C 222.15625 203.699219 222.3125 203.199219 222.417969 202.683594 C 222.523438 202.171875 222.578125 201.648438 222.582031 201.125 C 222.585938 200.601562 222.539062 200.078125 222.441406 199.5625 C 222.339844 199.046875 222.191406 198.546875 221.992188 198.0625 C 221.796875 197.574219 221.550781 197.113281 221.261719 196.675781 C 220.972656 196.238281 220.644531 195.832031 220.273438 195.457031 C 219.90625 195.085938 219.503906 194.75 219.066406 194.457031 C 218.632812 194.164062 218.171875 193.914062 217.6875 193.710938 C 217.203125 193.507812 216.703125 193.355469 216.191406 193.25 C 215.675781 193.148438 215.15625 193.09375 214.628906 193.09375 C 214.105469 193.089844 213.585938 193.140625 213.070312 193.242188 C 212.554688 193.34375 212.054688 193.492188 211.566406 193.691406 C 211.082031 193.890625 210.621094 194.136719 210.183594 194.429688 C 209.746094 194.71875 209.34375 195.050781 208.96875 195.421875 C 208.597656 195.792969 208.265625 196.195312 207.972656 196.628906 C 207.683594 197.066406 207.433594 197.527344 207.234375 198.011719 C 207.03125 198.496094 206.878906 198.996094 206.777344 199.511719 C 206.675781 200.027344 206.625 200.546875 206.625 201.074219 C 206.621094 201.59375 206.671875 202.109375 206.769531 202.621094 C 206.867188 203.132812 207.015625 203.628906 207.214844 204.113281 C 207.410156 204.59375 207.652344 205.054688 207.941406 205.488281 C 208.230469 205.921875 208.554688 206.328125 208.921875 206.695312 C 209.289062 207.066406 209.6875 207.398438 210.121094 207.691406 C 210.550781 207.980469 211.007812 208.230469 211.488281 208.429688 C 211.96875 208.632812 212.464844 208.785156 212.976562 208.890625 C 213.488281 208.996094 214.003906 209.046875 214.523438 209.050781 Z M 214.523438 209.050781 " fill-opacity="1" fill-rule="evenodd"/><g clip-path="url(#8991809911)"><g clip-path="url(#5a57fa2277)"><g clip-path="url(#6f348df0cb)"><g clip-path="url(#57c7e74453)"><path fill="#ffc53b" d="M 248.8125 221.050781 L 226.285156 244.507812 L 253.332031 275.972656 L 279.011719 249.246094 L 280.410156 241.757812 Z M 248.8125 221.050781 " fill-opacity="1" fill-rule="evenodd"/></g></g></g></g><g clip-path="url(#e6f1169c23)"><g clip-path="url(#37d3372939)"><g clip-path="url(#e482237451)"><g clip-path="url(#f9ba2ac7e0)"><g clip-path="url(#c575b94446)"><g clip-path="url(#71ba531b6d)"><path fill="#edac11" d="M 235.019531 210.859375 L 281.5625 251.394531 L 283.421875 243.339844 L 241.398438 206.117188 Z M 235.019531 210.859375 " fill-opacity="1" fill-rule="evenodd"/></g></g></g></g></g></g><g clip-path="url(#2ee7855be7)"><g clip-path="url(#9d054d9c0b)"><g clip-path="url(#ce4ef4192a)"><g clip-path="url(#df15005d17)"><g clip-path="url(#0b6d5bcf8f)"><g clip-path="url(#87c6211a6f)"><g clip-path="url(#3ad73505d9)"><g clip-path="url(#1a75c0e39c)"><path fill="#d49909" d="M 279.613281 250.917969 L 281.902344 239.910156 L 273.382812 246.414062 Z M 279.613281 250.917969 " fill-opacity="1" fill-rule="evenodd"/></g></g></g></g></g></g></g></g><g clip-path="url(#b845780595)"><g clip-path="url(#7635fcd542)"><g clip-path="url(#462cb18331)"><g clip-path="url(#4799224e54)"><path fill="#d49909" d="M 234.476562 224.976562 L 232.96875 225.214844 L 229.199219 229.285156 L 229.007812 230.742188 L 229.40625 231.757812 L 235.351562 225.34375 Z M 234.476562 224.976562 " fill-opacity="1" fill-rule="evenodd"/></g></g></g></g><g clip-path="url(#7d31610095)"><g clip-path="url(#53beae8deb)"><g clip-path="url(#0380571808)"><g clip-path="url(#1212cded94)"><path fill="#edac11" d="M 235.441406 241.40625 C 233.410156 238.558594 230.074219 234.828125 229.40625 231.316406 C 229.195312 230.210938 229.292969 229.210938 229.257812 229.222656 C 229.101562 229.273438 228.300781 230.785156 228.308594 231.699219 C 228.332031 235.734375 231.722656 239.628906 233.957031 242.894531 C 234.121094 243.128906 235.539062 241.542969 235.441406 241.40625 Z M 235.441406 241.40625 " fill-opacity="1" fill-rule="evenodd"/></g></g></g></g><g clip-path="url(#db05727b10)"><g clip-path="url(#15654025c4)"><g clip-path="url(#487012d7e7)"><g clip-path="url(#869a4b8a42)"><path fill="#edac11" d="M 245.417969 230.621094 C 242.429688 228.8125 238.457031 225.769531 234.898438 225.367188 C 233.78125 225.242188 232.792969 225.417969 232.800781 225.378906 C 232.839844 225.21875 234.289062 224.308594 235.199219 224.242188 C 239.226562 223.964844 243.367188 227.046875 246.789062 229.027344 C 247.039062 229.171875 245.5625 230.707031 245.417969 230.621094 Z M 245.417969 230.621094 " fill-opacity="1" fill-rule="evenodd"/></g></g></g></g><g fill="#004aad" fill-opacity="1"><g transform="translate(135.70181, 261.734001)"><g><path d="M 20.546875 -17.328125 C 21.640625 -18.484375 22.390625 -19.773438 22.796875 -21.203125 L 22.84375 -21.25 L 22.84375 -21.296875 C 23.09375 -22.390625 23.21875 -23.460938 23.21875 -24.515625 C 23.21875 -25.984375 22.953125 -27.179688 22.421875 -28.109375 C 21.359375 -30.015625 19.644531 -31.25 17.28125 -31.8125 C 16.625 -31.957031 15.800781 -32.03125 14.8125 -32.03125 C 13.8125 -32.03125 12.765625 -31.957031 11.671875 -31.8125 L 2.703125 -30.78125 C 2.210938 -30.75 1.9375 -30.46875 1.875 -29.9375 L -0.46875 -1.03125 C -0.46875 -0.71875 -0.375 -0.46875 -0.1875 -0.28125 C 0 -0.09375 0.21875 0 0.46875 0 L 11.203125 0 C 13.578125 0 15.492188 -0.3125 16.953125 -0.9375 C 18.566406 -1.5625 19.859375 -2.679688 20.828125 -4.296875 C 21.796875 -5.910156 22.28125 -7.625 22.28125 -9.4375 C 22.28125 -10.988281 22.046875 -12.265625 21.578125 -13.265625 C 21.109375 -14.265625 20.359375 -15.195312 19.328125 -16.0625 Z M 19.46875 -28.765625 L 19.375 -28.578125 L 19.28125 -28.578125 L 19.328125 -28.765625 Z M 12.65625 -27.828125 L 12.421875 -27.921875 C 12.296875 -27.984375 12.203125 -28.015625 12.140625 -28.015625 L 12.328125 -28.15625 L 12.5625 -28.296875 L 12.890625 -28.015625 L 12.890625 -27.921875 L 12.796875 -27.828125 Z M 12.703125 -26.390625 C 12.671875 -26.359375 12.625 -26.34375 12.5625 -26.34375 L 12.515625 -26.4375 C 12.484375 -26.46875 12.46875 -26.515625 12.46875 -26.578125 L 12.515625 -26.8125 L 12.796875 -27.140625 C 12.796875 -27.078125 12.78125 -27.03125 12.75 -27 L 12.703125 -26.90625 C 12.640625 -26.84375 12.640625 -26.765625 12.703125 -26.671875 C 12.765625 -26.609375 12.796875 -26.53125 12.796875 -26.4375 Z M 13.921875 -26.484375 L 14.015625 -26.484375 L 14.015625 -26.296875 L 13.921875 -26.296875 Z M 16.25 -25.453125 L 16.34375 -25.640625 L 16.4375 -25.640625 L 16.34375 -25.40625 Z M 10 -24.046875 C 11.238281 -24.265625 12.171875 -24.375 12.796875 -24.375 C 13.234375 -24.375 13.609375 -24.265625 13.921875 -24.046875 C 14.140625 -23.921875 14.25 -23.628906 14.25 -23.171875 C 14.25 -22.890625 14.203125 -22.515625 14.109375 -22.046875 C 13.921875 -21.359375 13.546875 -20.859375 12.984375 -20.546875 C 11.984375 -19.953125 10.457031 -19.457031 8.40625 -19.0625 L 8.828125 -23.90625 Z M 16.8125 -22.28125 C 16.8125 -22.1875 16.78125 -22.109375 16.71875 -22.046875 L 16.625 -22.09375 C 16.625 -22.15625 16.6875 -22.21875 16.8125 -22.28125 Z M 8.265625 -21.765625 C 8.265625 -21.609375 8.171875 -21.484375 7.984375 -21.390625 L 8.078125 -21.203125 L 8.21875 -21.0625 C 8.21875 -21.0625 8.222656 -21.050781 8.234375 -21.03125 C 8.253906 -21.019531 8.265625 -21.015625 8.265625 -21.015625 L 8.171875 -20.828125 L 7.890625 -20.828125 C 7.796875 -20.828125 7.75 -20.875 7.75 -20.96875 L 7.65625 -21.15625 C 7.84375 -21.28125 7.90625 -21.375 7.84375 -21.4375 L 7.703125 -21.4375 L 7.65625 -21.484375 L 7.609375 -21.484375 C 7.609375 -21.546875 7.640625 -21.578125 7.703125 -21.578125 L 7.796875 -21.578125 L 7.75 -21.671875 C 7.75 -21.671875 7.738281 -21.6875 7.71875 -21.71875 C 7.707031 -21.75 7.6875 -21.765625 7.65625 -21.765625 L 7.65625 -21.90625 C 7.65625 -21.9375 7.671875 -21.953125 7.703125 -21.953125 L 7.703125 -22.046875 L 7.796875 -22.046875 L 7.9375 -22.140625 C 8 -22.078125 8.03125 -22.046875 8.03125 -22.046875 L 8.21875 -21.859375 Z M 21.015625 -20.359375 C 20.953125 -20.296875 20.90625 -20.265625 20.875 -20.265625 C 20.8125 -20.265625 20.78125 -20.25 20.78125 -20.21875 C 20.75 -20.21875 20.707031 -20.234375 20.65625 -20.265625 C 20.613281 -20.296875 20.59375 -20.34375 20.59375 -20.40625 C 20.59375 -20.5 20.65625 -20.546875 20.78125 -20.546875 L 20.875 -20.546875 L 21.015625 -20.5 Z M 7.890625 -20.21875 C 7.921875 -20.1875 7.984375 -20.140625 8.078125 -20.078125 L 8.125 -19.890625 L 7.609375 -19.890625 L 7.703125 -20.078125 L 7.796875 -20.125 Z M 14.203125 -19.796875 C 14.265625 -19.859375 14.296875 -19.96875 14.296875 -20.125 L 14.71875 -20.125 L 14.71875 -19.984375 L 14.765625 -19.890625 L 14.765625 -19.796875 Z M 13.546875 -19.796875 C 13.546875 -19.703125 13.609375 -19.65625 13.734375 -19.65625 C 13.484375 -19.5 13.265625 -19.5 13.078125 -19.65625 L 13.359375 -19.703125 C 13.453125 -19.765625 13.519531 -19.8125 13.5625 -19.84375 C 13.613281 -19.875 13.609375 -19.859375 13.546875 -19.796875 Z M 7.9375 -19.65625 C 7.9375 -19.625 7.953125 -19.609375 7.984375 -19.609375 L 7.984375 -19.5625 L 7.703125 -19.421875 C 7.578125 -19.453125 7.453125 -19.5625 7.328125 -19.75 L 7.703125 -19.796875 L 7.796875 -19.75 L 7.890625 -19.75 L 7.9375 -19.703125 Z M 14.484375 -19.5625 C 14.484375 -19.5625 14.488281 -19.550781 14.5 -19.53125 C 14.519531 -19.519531 14.53125 -19.515625 14.53125 -19.515625 L 14.53125 -19.421875 L 14.34375 -19.421875 C 14.25 -19.421875 14.171875 -19.4375 14.109375 -19.46875 C 14.109375 -19.5 14.144531 -19.535156 14.21875 -19.578125 C 14.300781 -19.628906 14.390625 -19.65625 14.484375 -19.65625 Z M 15.3125 -18.734375 C 15.21875 -18.640625 15.125 -18.59375 15.03125 -18.59375 C 14.96875 -18.59375 14.878906 -18.5625 14.765625 -18.5 C 14.765625 -18.5625 14.75 -18.609375 14.71875 -18.640625 L 14.625 -18.6875 L 14.53125 -18.78125 L 14.625 -18.875 L 14.765625 -19.0625 C 14.910156 -19.144531 15 -19.234375 15.03125 -19.328125 Z M 12.328125 -19.140625 L 12.328125 -19.28125 L 12.703125 -19.234375 L 12.703125 -19.0625 Z M 5.796875 -18.734375 C 5.765625 -18.765625 5.703125 -18.78125 5.609375 -18.78125 L 5.515625 -18.828125 L 5.234375 -18.921875 C 5.234375 -19.015625 5.359375 -19.101562 5.609375 -19.1875 L 5.796875 -19.0625 Z M 12.515625 -19.015625 C 12.640625 -18.921875 12.640625 -18.8125 12.515625 -18.6875 L 12.421875 -18.6875 L 12.328125 -18.734375 C 12.328125 -18.734375 12.316406 -18.738281 12.296875 -18.75 C 12.285156 -18.769531 12.28125 -18.78125 12.28125 -18.78125 L 12.328125 -18.875 L 12.421875 -18.96875 Z M 4.8125 -18.59375 C 4.71875 -18.59375 4.640625 -18.609375 4.578125 -18.640625 L 4.671875 -18.921875 C 4.703125 -18.921875 4.734375 -18.910156 4.765625 -18.890625 C 4.796875 -18.878906 4.828125 -18.875 4.859375 -18.875 L 5.046875 -18.875 L 5.046875 -18.59375 Z M 7.1875 -18.640625 C 7.1875 -18.671875 7.207031 -18.691406 7.25 -18.703125 C 7.300781 -18.722656 7.34375 -18.75 7.375 -18.78125 L 7.375 -18.59375 C 7.375 -18.5 7.359375 -18.421875 7.328125 -18.359375 L 7.09375 -18.5 C 7.09375 -18.53125 7.125 -18.578125 7.1875 -18.640625 Z M 18.828125 -18.546875 C 18.859375 -18.578125 18.914062 -18.609375 19 -18.640625 C 19.09375 -18.671875 19.1875 -18.6875 19.28125 -18.6875 L 19.46875 -18.6875 L 19.609375 -18.640625 L 19.421875 -18.453125 Z M 18.640625 -18.453125 L 18.546875 -18.40625 L 18.5 -18.546875 L 18.59375 -18.546875 Z M 14.71875 -18.03125 L 14.71875 -18.3125 L 14.9375 -18.3125 L 14.9375 -18.03125 Z M 14.203125 -18.03125 C 14.421875 -17.9375 14.53125 -17.8125 14.53125 -17.65625 L 14.109375 -17.65625 C 14.171875 -17.78125 14.203125 -17.90625 14.203125 -18.03125 Z M 19.0625 -17.9375 L 18.875 -17.84375 L 18.875 -17.9375 L 19.015625 -17.984375 Z M 12.28125 -16.296875 C 12.21875 -16.234375 12.140625 -16.25 12.046875 -16.34375 L 12 -16.484375 C 12 -16.609375 12.0625 -16.671875 12.1875 -16.671875 C 12.28125 -16.671875 12.359375 -16.65625 12.421875 -16.625 L 12.421875 -16.296875 Z M 15.453125 -15.96875 L 15.453125 -16.15625 C 15.484375 -16.15625 15.5 -16.171875 15.5 -16.203125 L 15.78125 -16.203125 L 15.6875 -15.96875 Z M 12.609375 -12.65625 C 12.453125 -12.65625 12.34375 -12.734375 12.28125 -12.890625 C 12.40625 -12.890625 12.5 -12.875 12.5625 -12.84375 C 12.59375 -12.8125 12.609375 -12.75 12.609375 -12.65625 Z M 9.90625 -12.328125 L 9.953125 -12.375 C 10.628906 -12.53125 11.203125 -12.609375 11.671875 -12.609375 C 12.015625 -12.609375 12.28125 -12.5625 12.46875 -12.46875 C 13.03125 -12.125 13.3125 -11.625 13.3125 -10.96875 C 13.3125 -10.570312 13.203125 -10.171875 12.984375 -9.765625 C 12.765625 -9.359375 12.5 -9.03125 12.1875 -8.78125 C 11.625 -8.34375 11.023438 -8.003906 10.390625 -7.765625 C 9.753906 -7.535156 8.9375 -7.375 7.9375 -7.28125 L 8.125 -11.953125 Z M 14.625 -12.609375 L 14.71875 -12.609375 L 14.71875 -12.375 L 14.625 -12.375 Z M 4.34375 -11.859375 C 4.34375 -11.765625 4.296875 -11.6875 4.203125 -11.625 L 4.203125 -12.046875 C 4.296875 -11.953125 4.34375 -11.890625 4.34375 -11.859375 Z M 4.4375 -11.25 C 4.4375 -11.25 4.425781 -11.238281 4.40625 -11.21875 C 4.394531 -11.207031 4.390625 -11.203125 4.390625 -11.203125 C 4.234375 -11.109375 4.171875 -11 4.203125 -10.875 C 4.234375 -10.84375 4.238281 -10.8125 4.21875 -10.78125 C 4.207031 -10.75 4.203125 -10.71875 4.203125 -10.6875 C 4.171875 -10.71875 4.109375 -10.734375 4.015625 -10.734375 L 4.015625 -10.875 C 4.140625 -10.96875 4.203125 -11.0625 4.203125 -11.15625 C 4.109375 -11.25 4.15625 -11.328125 4.34375 -11.390625 L 4.390625 -11.390625 L 4.390625 -11.296875 C 4.421875 -11.296875 4.4375 -11.28125 4.4375 -11.25 Z M 4.34375 -10.234375 C 4.34375 -10.171875 4.316406 -10.066406 4.265625 -9.921875 C 4.222656 -9.785156 4.171875 -9.6875 4.109375 -9.625 C 4.109375 -9.625 4.15625 -9.578125 4.25 -9.484375 C 4.25 -9.484375 4.253906 -9.472656 4.265625 -9.453125 C 4.285156 -9.441406 4.296875 -9.4375 4.296875 -9.4375 L 4.203125 -9.390625 C 4.171875 -9.421875 4.109375 -9.4375 4.015625 -9.4375 L 4.015625 -10 C 3.953125 -10.1875 3.953125 -10.359375 4.015625 -10.515625 L 4.203125 -10.515625 C 4.203125 -10.484375 4.234375 -10.4375 4.296875 -10.375 Z M 6.125 -10.28125 C 6.15625 -10.25 6.160156 -10.21875 6.140625 -10.1875 C 6.128906 -10.15625 6.125 -10.125 6.125 -10.09375 L 6.078125 -10.1875 C 6.078125 -10.25 6.0625 -10.296875 6.03125 -10.328125 C 6.03125 -10.390625 6.0625 -10.4375 6.125 -10.46875 Z M 4.203125 -8.59375 C 4.203125 -8.625 4.1875 -8.644531 4.15625 -8.65625 C 4.125 -8.675781 4.109375 -8.6875 4.109375 -8.6875 C 4.078125 -8.6875 4.050781 -8.703125 4.03125 -8.734375 C 4.019531 -8.765625 4.015625 -8.78125 4.015625 -8.78125 L 4.203125 -8.78125 Z M 4.25 -6.625 C 4.21875 -6.5625 4.203125 -6.441406 4.203125 -6.265625 C 4.078125 -6.265625 4 -6.234375 3.96875 -6.171875 C 4.03125 -6.109375 4.078125 -6.078125 4.109375 -6.078125 C 4.171875 -6.078125 4.203125 -6.046875 4.203125 -5.984375 C 4.171875 -5.984375 4.15625 -5.96875 4.15625 -5.9375 L 4.109375 -5.890625 L 3.921875 -6.078125 C 3.828125 -6.140625 3.78125 -6.1875 3.78125 -6.21875 L 3.828125 -6.390625 L 3.875 -6.53125 L 4.015625 -6.53125 L 4.15625 -6.578125 C 4.09375 -6.640625 4.015625 -6.671875 3.921875 -6.671875 C 3.859375 -6.984375 3.828125 -7.3125 3.828125 -7.65625 C 3.828125 -7.71875 3.890625 -7.75 4.015625 -7.75 C 4.109375 -7.8125 4.15625 -7.875 4.15625 -7.9375 L 4.15625 -8.078125 C 4.15625 -8.171875 4.171875 -8.234375 4.203125 -8.265625 L 4.25 -7.46875 C 4.15625 -7.46875 4.078125 -7.421875 4.015625 -7.328125 C 4.046875 -7.296875 4.09375 -7.253906 4.15625 -7.203125 C 4.21875 -7.160156 4.253906 -7.113281 4.265625 -7.0625 C 4.285156 -7.019531 4.296875 -6.96875 4.296875 -6.90625 Z M 12.1875 -6.90625 C 12.125 -6.84375 12.03125 -6.8125 11.90625 -6.8125 L 11.765625 -6.953125 L 12.140625 -7.140625 Z M 3.828125 -5.65625 L 3.828125 -5.796875 L 3.875 -5.84375 L 4.015625 -5.84375 L 4.203125 -5.796875 L 4.203125 -5.515625 L 4.0625 -5.515625 Z M 5.9375 -2.5625 C 5.9375 -2.5625 5.925781 -2.566406 5.90625 -2.578125 C 5.894531 -2.597656 5.890625 -2.609375 5.890625 -2.609375 L 5.890625 -2.703125 C 5.890625 -2.796875 5.921875 -2.894531 5.984375 -3 C 6.046875 -3.113281 6.109375 -3.203125 6.171875 -3.265625 L 6.171875 -3.453125 L 6.125 -3.640625 L 6.171875 -3.6875 C 6.171875 -3.71875 6.1875 -3.734375 6.21875 -3.734375 C 6.125 -3.984375 6.140625 -4.203125 6.265625 -4.390625 C 6.378906 -4.640625 6.4375 -4.9375 6.4375 -5.28125 L 6.53125 -5.5625 C 6.59375 -5.6875 6.65625 -5.78125 6.71875 -5.84375 L 6.71875 -2.5625 Z M 3.96875 -4.765625 L 3.875 -4.765625 L 3.875 -4.953125 L 3.96875 -4.953125 Z M 3.96875 -4.34375 L 3.875 -4.34375 L 3.875 -4.484375 L 3.96875 -4.484375 Z M 3.921875 -3.5 C 3.796875 -3.46875 3.6875 -3.46875 3.59375 -3.5 L 3.59375 -3.6875 L 3.921875 -3.6875 Z M 5.703125 -2.890625 C 5.703125 -2.828125 5.671875 -2.765625 5.609375 -2.703125 C 5.546875 -2.640625 5.515625 -2.578125 5.515625 -2.515625 C 5.546875 -2.484375 5.5625 -2.421875 5.5625 -2.328125 C 5.5625 -2.203125 5.5 -2.082031 5.375 -1.96875 L 5.28125 -1.921875 L 5.234375 -1.921875 C 5.203125 -1.953125 5.1875 -2.039062 5.1875 -2.1875 C 5.1875 -2.375 5.21875 -2.46875 5.28125 -2.46875 C 5.34375 -2.46875 5.4375 -2.625 5.5625 -2.9375 C 5.59375 -2.9375 5.609375 -2.921875 5.609375 -2.890625 Z M 5.703125 -2.890625 "/></g></g></g><g fill="#004aad" fill-opacity="1"><g transform="translate(160.919392, 261.734001)"><g><path d="M 8.40625 -32.734375 C 8.6875 -32.734375 8.910156 -32.628906 9.078125 -32.421875 C 9.253906 -32.222656 9.34375 -31.988281 9.34375 -31.71875 C 8.875 -26.195312 8.53125 -21.070312 8.3125 -16.34375 C 8.25 -13.976562 8.21875 -12.234375 8.21875 -11.109375 L 8.078125 -11.109375 C 7.921875 -11.109375 7.8125 -11.09375 7.75 -11.0625 L 7.703125 -10.734375 L 7.796875 -10.734375 C 7.703125 -10.585938 7.53125 -10.46875 7.28125 -10.375 C 7.5625 -10.25 7.875 -10.1875 8.21875 -10.1875 L 8.21875 -8.828125 L 7.984375 -8.828125 L 7.796875 -8.734375 L 7.65625 -8.6875 C 7.65625 -8.6875 7.625 -8.65625 7.5625 -8.59375 L 7.5625 -8.40625 C 7.53125 -8.34375 7.515625 -8.265625 7.515625 -8.171875 C 7.515625 -7.984375 7.53125 -7.828125 7.5625 -7.703125 L 7.75 -7.84375 L 7.84375 -7.890625 L 8.078125 -8.03125 C 8.109375 -8.0625 8.125 -8.140625 8.125 -8.265625 L 8.171875 -8.3125 L 8.21875 -8.3125 C 8.1875 -8 8.171875 -7.332031 8.171875 -6.3125 C 8.109375 -6.363281 8.03125 -6.363281 7.9375 -6.3125 C 7.9375 -6.1875 7.953125 -6.125 7.984375 -6.125 L 8.03125 -6.078125 L 8.03125 -6.03125 L 8.125 -6.03125 L 8.125 -6.078125 L 8.171875 -6.078125 L 8.171875 -4.34375 C 8.171875 -4.46875 8.109375 -4.578125 7.984375 -4.671875 L 7.609375 -4.671875 C 7.609375 -4.578125 7.625 -4.53125 7.65625 -4.53125 L 7.65625 -4.390625 L 7.703125 -4.34375 L 7.703125 -4.296875 C 7.828125 -4.265625 7.984375 -4.28125 8.171875 -4.34375 L 8.171875 -1.078125 C 8.171875 -0.453125 7.859375 -0.140625 7.234375 -0.140625 L 0.515625 0 C 0.234375 0 0 -0.09375 -0.1875 -0.28125 C -0.375 -0.46875 -0.46875 -0.703125 -0.46875 -0.984375 C -0.34375 -7.703125 -0.1875 -12.742188 0 -16.109375 C 0.1875 -20.160156 0.359375 -23.164062 0.515625 -25.125 C 0.546875 -25.09375 0.59375 -25.078125 0.65625 -25.078125 L 0.703125 -25.3125 C 0.671875 -25.34375 0.625 -25.359375 0.5625 -25.359375 L 0.984375 -31.671875 C 1.015625 -32.253906 1.34375 -32.546875 1.96875 -32.546875 Z M 3.640625 -31.34375 C 3.703125 -31.4375 3.78125 -31.484375 3.875 -31.484375 C 4.125 -31.484375 4.296875 -31.375 4.390625 -31.15625 C 4.484375 -30.9375 4.578125 -30.8125 4.671875 -30.78125 C 4.734375 -30.84375 4.765625 -30.953125 4.765625 -31.109375 C 4.703125 -31.203125 4.765625 -31.28125 4.953125 -31.34375 L 5.515625 -31.34375 C 5.515625 -31.46875 5.453125 -31.546875 5.328125 -31.578125 C 5.140625 -31.546875 5.03125 -31.546875 5 -31.578125 C 4.96875 -31.609375 4.90625 -31.625 4.8125 -31.625 L 4.578125 -31.53125 C 4.484375 -31.4375 4.421875 -31.390625 4.390625 -31.390625 C 4.296875 -31.390625 4.203125 -31.4375 4.109375 -31.53125 L 3.875 -31.625 L 3.21875 -31.625 C 3.25 -31.53125 3.234375 -31.453125 3.171875 -31.390625 L 2.890625 -31.390625 C 2.796875 -31.546875 2.75 -31.59375 2.75 -31.53125 C 2.75 -31.5625 2.71875 -31.546875 2.65625 -31.484375 L 2.5625 -31.296875 L 2.375 -31.296875 C 2.375 -31.296875 2.328125 -31.34375 2.234375 -31.4375 C 2.203125 -31.46875 2.160156 -31.53125 2.109375 -31.625 C 1.984375 -31.625 1.890625 -31.628906 1.828125 -31.640625 C 1.765625 -31.660156 1.71875 -31.671875 1.6875 -31.671875 C 1.6875 -31.640625 1.65625 -31.59375 1.59375 -31.53125 C 1.53125 -31.5 1.5 -31.453125 1.5 -31.390625 C 1.5 -31.203125 1.53125 -31.078125 1.59375 -31.015625 C 1.6875 -30.921875 1.71875 -30.71875 1.6875 -30.40625 L 1.546875 -29.984375 L 1.40625 -29.515625 C 1.40625 -29.453125 1.4375 -29.390625 1.5 -29.328125 C 1.5625 -29.265625 1.59375 -29.203125 1.59375 -29.140625 C 1.53125 -29.140625 1.5 -29.125 1.5 -29.09375 C 1.40625 -29 1.359375 -28.9375 1.359375 -28.90625 C 1.484375 -28.875 1.515625 -28.765625 1.453125 -28.578125 C 1.359375 -28.484375 1.3125 -28.390625 1.3125 -28.296875 C 1.3125 -27.984375 1.328125 -27.75 1.359375 -27.59375 L 1.453125 -27.09375 C 1.453125 -27.03125 1.40625 -26.96875 1.3125 -26.90625 L 1.40625 -26.90625 L 1.453125 -26.859375 C 1.640625 -26.953125 1.8125 -27 1.96875 -27 L 1.96875 -27.421875 C 1.875 -27.453125 1.796875 -27.519531 1.734375 -27.625 C 1.671875 -27.726562 1.65625 -27.8125 1.6875 -27.875 L 2.109375 -28.015625 L 2.421875 -28.15625 C 2.328125 -28.21875 2.28125 -28.265625 2.28125 -28.296875 C 2.28125 -28.453125 2.40625 -28.53125 2.65625 -28.53125 C 2.59375 -28.59375 2.5625 -28.640625 2.5625 -28.671875 L 2.515625 -28.765625 C 2.703125 -28.953125 2.796875 -29.046875 2.796875 -29.046875 C 2.796875 -29.109375 2.765625 -29.171875 2.703125 -29.234375 L 2.609375 -29.421875 C 2.734375 -29.546875 2.859375 -29.609375 2.984375 -29.609375 L 3.453125 -29.703125 C 3.140625 -29.703125 2.984375 -29.765625 2.984375 -29.890625 C 2.984375 -29.953125 3.046875 -30.019531 3.171875 -30.09375 C 3.296875 -30.175781 3.4375 -30.21875 3.59375 -30.21875 C 3.46875 -30.3125 3.4375 -30.421875 3.5 -30.546875 C 3.46875 -30.546875 3.421875 -30.566406 3.359375 -30.609375 C 3.296875 -30.660156 3.265625 -30.71875 3.265625 -30.78125 C 3.265625 -30.875 3.375 -30.96875 3.59375 -31.0625 C 3.65625 -31.125 3.65625 -31.171875 3.59375 -31.203125 C 3.59375 -31.265625 3.609375 -31.3125 3.640625 -31.34375 Z M 3.734375 -30.078125 C 3.734375 -30.046875 3.765625 -30.03125 3.828125 -30.03125 C 4.078125 -30.03125 4.234375 -30.0625 4.296875 -30.125 L 4.34375 -30.21875 L 4.34375 -30.359375 C 4.34375 -30.453125 4.359375 -30.515625 4.390625 -30.546875 C 4.265625 -30.546875 4.203125 -30.515625 4.203125 -30.453125 C 4.140625 -30.328125 4.109375 -30.25 4.109375 -30.21875 C 4.015625 -30.09375 3.890625 -30.046875 3.734375 -30.078125 Z M 2.015625 -25.3125 C 1.890625 -25.46875 1.84375 -25.609375 1.875 -25.734375 C 1.875 -25.890625 1.953125 -26 2.109375 -26.0625 C 2.191406 -26.0625 2.296875 -26.125 2.421875 -26.25 C 2.390625 -26.4375 2.269531 -26.53125 2.0625 -26.53125 C 1.875 -26.5 1.6875 -26.5 1.5 -26.53125 C 1.5 -26.4375 1.46875 -26.347656 1.40625 -26.265625 C 1.34375 -26.191406 1.296875 -26.140625 1.265625 -26.109375 C 1.359375 -26.046875 1.421875 -25.984375 1.453125 -25.921875 C 1.484375 -25.859375 1.46875 -25.78125 1.40625 -25.6875 L 1.359375 -25.40625 L 1.40625 -25.03125 C 1.34375 -24.90625 1.3125 -24.8125 1.3125 -24.75 C 1.21875 -24.65625 1.21875 -24.578125 1.3125 -24.515625 C 1.3125 -24.484375 1.316406 -24.457031 1.328125 -24.4375 C 1.347656 -24.425781 1.375 -24.40625 1.40625 -24.375 C 1.4375 -24.375 1.484375 -24.34375 1.546875 -24.28125 L 1.3125 -21.109375 C 1.09375 -20.984375 1.015625 -20.921875 1.078125 -20.921875 C 1.140625 -20.921875 1.21875 -20.875 1.3125 -20.78125 C 1.28125 -20.6875 1.203125 -20.625 1.078125 -20.59375 L 1.03125 -20.171875 C 1.21875 -20.078125 1.28125 -20.015625 1.21875 -19.984375 L 1.078125 -19.84375 L 1.3125 -19.65625 L 1.171875 -17.65625 C 1.046875 -17.5625 0.984375 -17.46875 0.984375 -17.375 C 0.984375 -17.3125 1.046875 -17.21875 1.171875 -17.09375 C 1.171875 -17.09375 1.175781 -17.082031 1.1875 -17.0625 C 1.207031 -17.050781 1.21875 -17.046875 1.21875 -17.046875 C 1.21875 -16.984375 1.1875 -16.925781 1.125 -16.875 C 1.0625 -16.832031 1 -16.796875 0.9375 -16.765625 C 0.96875 -16.671875 0.972656 -16.582031 0.953125 -16.5 C 0.941406 -16.425781 0.890625 -16.375 0.796875 -16.34375 C 0.984375 -16.21875 1.078125 -16.09375 1.078125 -15.96875 C 1.078125 -15.875 1.0625 -15.785156 1.03125 -15.703125 C 1 -15.628906 0.96875 -15.5625 0.9375 -15.5 C 0.84375 -15.25 0.75 -15.125 0.65625 -15.125 C 0.875 -15 0.984375 -14.910156 0.984375 -14.859375 C 0.984375 -14.859375 0.972656 -14.847656 0.953125 -14.828125 C 0.941406 -14.816406 0.9375 -14.8125 0.9375 -14.8125 L 0.9375 -14.859375 C 0.84375 -14.765625 0.765625 -14.660156 0.703125 -14.546875 C 0.640625 -14.441406 0.609375 -14.359375 0.609375 -14.296875 C 0.609375 -14.234375 0.625 -14.1875 0.65625 -14.15625 C 0.71875 -14.125 0.75 -14.09375 0.75 -14.0625 L 0.609375 -13.96875 C 0.703125 -13.9375 0.75 -13.84375 0.75 -13.6875 L 0.75 -13.3125 C 0.75 -13.3125 0.738281 -13.285156 0.71875 -13.234375 C 0.707031 -13.191406 0.6875 -13.109375 0.65625 -12.984375 C 0.65625 -12.953125 0.644531 -12.921875 0.625 -12.890625 C 0.613281 -12.859375 0.609375 -12.828125 0.609375 -12.796875 L 0.75 -12.515625 C 0.8125 -12.453125 0.84375 -12.375 0.84375 -12.28125 C 0.84375 -12.1875 0.8125 -12.109375 0.75 -12.046875 C 0.65625 -11.921875 0.609375 -11.828125 0.609375 -11.765625 C 0.609375 -11.703125 0.625 -11.671875 0.65625 -11.671875 L 0.65625 -11.578125 L 0.9375 -11.578125 C 0.875 -11.578125 0.84375 -11.625 0.84375 -11.71875 C 0.8125 -11.75 0.796875 -11.796875 0.796875 -11.859375 C 0.953125 -11.953125 1.078125 -12 1.171875 -12 C 1.109375 -12.09375 1.046875 -12.253906 0.984375 -12.484375 C 0.921875 -12.722656 0.890625 -12.9375 0.890625 -13.125 C 0.890625 -13.1875 0.921875 -13.25 0.984375 -13.3125 C 1.046875 -13.375 1.078125 -13.59375 1.078125 -13.96875 L 1.171875 -14.34375 C 1.265625 -14.4375 1.265625 -14.5 1.171875 -14.53125 C 1.140625 -14.5625 1.15625 -14.65625 1.21875 -14.8125 L 1.40625 -14.8125 C 1.3125 -15.207031 1.265625 -15.453125 1.265625 -15.546875 C 1.265625 -15.671875 1.296875 -15.8125 1.359375 -15.96875 C 1.421875 -16.125 1.484375 -16.25 1.546875 -16.34375 L 1.3125 -16.34375 L 1.3125 -16.296875 L 1.078125 -16.296875 C 1.078125 -16.328125 1.046875 -16.34375 0.984375 -16.34375 L 1.359375 -16.71875 C 1.484375 -16.84375 1.546875 -16.9375 1.546875 -17 L 1.453125 -17.421875 C 1.359375 -17.640625 1.359375 -17.84375 1.453125 -18.03125 L 1.828125 -18.03125 C 1.578125 -18.03125 1.453125 -18.109375 1.453125 -18.265625 C 1.453125 -18.359375 1.515625 -18.53125 1.640625 -18.78125 C 1.765625 -19 1.828125 -19.179688 1.828125 -19.328125 L 1.78125 -19.796875 C 1.75 -19.828125 1.734375 -19.890625 1.734375 -19.984375 C 1.671875 -20.109375 1.640625 -20.25 1.640625 -20.40625 L 1.59375 -20.640625 C 1.59375 -20.703125 1.625 -20.78125 1.6875 -20.875 C 1.78125 -21.1875 1.8125 -21.328125 1.78125 -21.296875 C 1.78125 -21.359375 1.8125 -21.515625 1.875 -21.765625 L 1.921875 -21.953125 C 1.921875 -21.984375 1.890625 -22.09375 1.828125 -22.28125 C 1.734375 -22.5625 1.734375 -22.734375 1.828125 -22.796875 C 1.859375 -22.859375 1.921875 -22.921875 2.015625 -22.984375 C 2.046875 -23.109375 2.0625 -23.320312 2.0625 -23.625 C 2.0625 -23.9375 2.132812 -24.125 2.28125 -24.1875 C 2.039062 -24.34375 2.007812 -24.484375 2.1875 -24.609375 L 2.0625 -24.84375 C 2.113281 -24.9375 2.097656 -25.09375 2.015625 -25.3125 Z M 6.578125 -25.078125 C 6.578125 -25.078125 6.53125 -25.03125 6.4375 -24.9375 L 6.71875 -24.9375 Z M 7.421875 -24.65625 L 7.75 -24.84375 L 7.46875 -24.9375 C 7.34375 -24.8125 7.28125 -24.75 7.28125 -24.75 Z M 8.03125 -20.546875 C 8 -20.546875 7.984375 -20.5625 7.984375 -20.59375 L 7.890625 -20.59375 L 7.796875 -20.546875 C 7.796875 -20.546875 7.785156 -20.535156 7.765625 -20.515625 C 7.753906 -20.503906 7.75 -20.5 7.75 -20.5 C 7.75 -20.5 7.738281 -20.488281 7.71875 -20.46875 C 7.707031 -20.457031 7.6875 -20.453125 7.65625 -20.453125 L 7.84375 -20.40625 C 7.875 -20.375 7.910156 -20.363281 7.953125 -20.375 C 8.003906 -20.394531 8.03125 -20.421875 8.03125 -20.453125 Z M 7.234375 -19.015625 C 7.109375 -19.128906 6.953125 -19.1875 6.765625 -19.1875 C 6.765625 -19.070312 6.8125 -18.96875 6.90625 -18.875 Z M 6.8125 -17.65625 L 6.8125 -17.796875 L 6.625 -17.796875 L 6.625 -17.65625 Z M 5.46875 -17.375 L 5.515625 -17.65625 C 5.328125 -17.65625 5.203125 -17.5625 5.140625 -17.375 Z M 7.046875 -17.046875 L 6.90625 -17.1875 L 6.578125 -17.1875 L 6.53125 -17 C 6.53125 -16.84375 6.640625 -16.765625 6.859375 -16.765625 L 6.90625 -16.8125 C 6.9375 -16.84375 6.957031 -16.863281 6.96875 -16.875 C 6.988281 -16.894531 7 -16.921875 7 -16.953125 Z M 6.125 -16.625 L 6.21875 -16.671875 L 6.265625 -16.71875 C 6.378906 -16.8125 6.4375 -16.890625 6.4375 -16.953125 C 6.46875 -17.046875 6.394531 -17.09375 6.21875 -17.09375 L 6.171875 -17 L 6.171875 -16.859375 Z M 5.703125 -15.875 L 5.515625 -15.96875 L 5.421875 -15.59375 L 5.65625 -15.40625 L 5.890625 -15.546875 C 6.015625 -15.609375 6.078125 -15.65625 6.078125 -15.6875 C 6.078125 -15.71875 6.050781 -15.75 6 -15.78125 C 5.957031 -15.8125 5.921875 -15.828125 5.890625 -15.828125 Z M 7 -15.03125 L 7 -15.171875 L 6.71875 -15.171875 L 6.71875 -15.03125 Z M 6.53125 -14.671875 C 6.5 -14.671875 6.484375 -14.703125 6.484375 -14.765625 L 6.171875 -14.765625 L 6.171875 -14.53125 L 6.53125 -14.53125 Z M 7.046875 -13.546875 C 6.921875 -13.671875 6.796875 -13.734375 6.671875 -13.734375 C 6.546875 -13.703125 6.484375 -13.609375 6.484375 -13.453125 L 6.671875 -13.453125 C 6.703125 -13.421875 6.765625 -13.40625 6.859375 -13.40625 Z M 7.9375 -13.03125 C 7.875 -13.21875 7.75 -13.28125 7.5625 -13.21875 C 7.46875 -13.125 7.453125 -13.078125 7.515625 -13.078125 L 7.515625 -12.9375 Z M 6.53125 -12.46875 C 6.46875 -12.4375 6.375 -12.410156 6.25 -12.390625 C 6.132812 -12.378906 6 -12.34375 5.84375 -12.28125 L 5.84375 -12.09375 C 5.84375 -12.09375 5.847656 -12.082031 5.859375 -12.0625 C 5.878906 -12.050781 5.890625 -12.046875 5.890625 -12.046875 L 5.984375 -12.046875 L 6.03125 -12 L 6.4375 -12 L 6.4375 -12.234375 C 6.625 -12.234375 6.75 -12.25 6.8125 -12.28125 C 6.8125 -12.34375 6.796875 -12.390625 6.765625 -12.421875 L 6.71875 -12.515625 L 6.71875 -12.5625 L 6.765625 -12.796875 L 6.171875 -12.84375 C 6.171875 -12.625 6.1875 -12.5 6.21875 -12.46875 Z M 5.984375 -11.90625 C 5.984375 -11.875 5.921875 -11.859375 5.796875 -11.859375 L 5.84375 -11.90625 C 5.78125 -11.96875 5.671875 -12 5.515625 -12 L 5.421875 -11.765625 L 5.515625 -11.765625 C 5.515625 -11.765625 5.519531 -11.753906 5.53125 -11.734375 C 5.550781 -11.722656 5.5625 -11.71875 5.5625 -11.71875 C 5.59375 -11.71875 5.640625 -11.6875 5.703125 -11.625 L 5.796875 -11.765625 L 5.890625 -11.71875 C 5.890625 -11.65625 5.921875 -11.625 5.984375 -11.625 L 6.3125 -11.671875 C 6.3125 -11.828125 6.203125 -11.90625 5.984375 -11.90625 Z M 5.796875 -11.296875 L 5.796875 -11.25 L 5.84375 -11.203125 L 6.21875 -11.203125 C 6.125 -11.328125 5.953125 -11.390625 5.703125 -11.390625 C 5.765625 -11.359375 5.78125 -11.328125 5.75 -11.296875 Z M 0.890625 -11.203125 C 0.734375 -10.984375 0.65625 -10.90625 0.65625 -10.96875 C 0.5625 -10.875 0.515625 -10.796875 0.515625 -10.734375 L 0.46875 -9.15625 C 0.46875 -9.1875 0.5 -9.328125 0.5625 -9.578125 C 0.5625 -9.765625 0.566406 -9.890625 0.578125 -9.953125 C 0.597656 -10.015625 0.609375 -10.0625 0.609375 -10.09375 C 0.609375 -10.125 0.640625 -10.234375 0.703125 -10.421875 C 0.796875 -10.515625 0.84375 -10.585938 0.84375 -10.640625 Z M 6.625 -10.96875 L 6.671875 -10.921875 L 6.71875 -10.828125 L 6.8125 -10.78125 C 6.8125 -10.75 6.828125 -10.734375 6.859375 -10.734375 C 6.890625 -10.734375 6.90625 -10.75 6.90625 -10.78125 L 7 -10.875 C 7 -10.9375 6.984375 -10.984375 6.953125 -11.015625 C 6.953125 -11.015625 6.9375 -11.019531 6.90625 -11.03125 C 6.875 -11.050781 6.859375 -11.078125 6.859375 -11.109375 L 6.765625 -11.109375 L 6.71875 -11.203125 L 6.390625 -11.203125 L 6.21875 -11.0625 L 6.390625 -10.921875 L 6.484375 -10.921875 L 6.53125 -10.96875 Z M 5.703125 -10.875 L 5.703125 -10.734375 L 5.984375 -10.828125 L 5.9375 -11.015625 Z M 8.21875 -10.734375 L 8.21875 -10.1875 C 8.15625 -10.25 8.125 -10.28125 8.125 -10.28125 L 8.03125 -10.328125 L 8.03125 -10.375 C 8.09375 -10.375 8.125 -10.421875 8.125 -10.515625 L 8.125 -10.734375 Z M 6.078125 -10.421875 C 6.015625 -10.421875 5.921875 -10.359375 5.796875 -10.234375 L 5.9375 -10.09375 C 6.0625 -10.09375 6.171875 -10.140625 6.265625 -10.234375 C 6.296875 -10.359375 6.234375 -10.421875 6.078125 -10.421875 Z M 5 -9.671875 C 5.03125 -9.546875 5.109375 -9.484375 5.234375 -9.484375 C 5.296875 -9.484375 5.328125 -9.5 5.328125 -9.53125 L 5.421875 -9.53125 L 5.515625 -9.578125 L 5.5625 -9.859375 L 5.421875 -9.953125 C 5.359375 -9.953125 5.3125 -9.96875 5.28125 -10 C 5.1875 -10 5.140625 -10.046875 5.140625 -10.140625 L 4.859375 -10.140625 L 4.765625 -10.09375 L 4.765625 -10.046875 L 4.671875 -10 L 4.625 -9.953125 C 4.71875 -9.859375 4.796875 -9.8125 4.859375 -9.8125 Z M 6.625 -9.859375 L 5.796875 -9.953125 L 5.796875 -9.71875 Z M 4.578125 -8.921875 C 4.671875 -8.828125 4.796875 -8.78125 4.953125 -8.78125 L 5.09375 -9.109375 L 4.671875 -9.109375 Z M 6.53125 -8.6875 C 6.65625 -8.78125 6.71875 -8.875 6.71875 -8.96875 C 6.65625 -9.03125 6.546875 -9.0625 6.390625 -9.0625 L 6.359375 -9.0625 C 6.203125 -8.96875 6.125 -8.890625 6.125 -8.828125 C 6.125 -8.734375 6.171875 -8.6875 6.265625 -8.6875 Z M 7.515625 -8.828125 C 7.484375 -8.859375 7.390625 -8.875 7.234375 -8.875 C 7.078125 -8.71875 7.03125 -8.59375 7.09375 -8.5 C 7.28125 -8.46875 7.421875 -8.5 7.515625 -8.59375 Z M 0.328125 -8.3125 C 0.453125 -8.3125 0.515625 -8.34375 0.515625 -8.40625 C 0.515625 -8.59375 0.5 -8.6875 0.46875 -8.6875 C 0.375 -8.59375 0.328125 -8.46875 0.328125 -8.3125 Z M 4.953125 -7.796875 C 5.015625 -7.796875 5.0625 -7.8125 5.09375 -7.84375 L 5.1875 -7.890625 L 5.28125 -7.984375 L 4.8125 -8.078125 L 4.859375 -7.9375 C 4.859375 -7.84375 4.890625 -7.796875 4.953125 -7.796875 Z M 4.671875 -7.984375 L 4.109375 -7.890625 L 4.671875 -7.75 Z M 5.9375 -7.65625 L 6.171875 -7.65625 L 6.21875 -7.84375 L 5.984375 -7.84375 Z M 5.375 -7.09375 C 5.375 -7.09375 5.363281 -7.082031 5.34375 -7.0625 C 5.332031 -7.050781 5.328125 -7.046875 5.328125 -7.046875 C 5.390625 -6.953125 5.546875 -6.90625 5.796875 -6.90625 C 5.859375 -6.90625 5.9375 -6.96875 6.03125 -7.09375 L 6.390625 -7.09375 L 6.4375 -7.140625 L 6.4375 -7.1875 L 6.484375 -7.28125 L 6.078125 -7.375 C 6.046875 -7.34375 6.03125 -7.296875 6.03125 -7.234375 L 5.984375 -7.234375 L 5.9375 -7.28125 L 5.75 -7.28125 C 5.625 -7.28125 5.546875 -7.25 5.515625 -7.1875 C 5.484375 -7.1875 5.457031 -7.171875 5.4375 -7.140625 C 5.425781 -7.109375 5.421875 -7.09375 5.421875 -7.09375 Z M 7.515625 -7.046875 L 7.609375 -7 L 7.609375 -6.953125 L 7.703125 -6.953125 L 7.796875 -6.90625 C 8.046875 -6.90625 8.171875 -7 8.171875 -7.1875 L 7.84375 -7.234375 Z M 4.390625 -7.1875 L 4.203125 -7.046875 C 4.296875 -6.953125 4.40625 -6.90625 4.53125 -6.90625 L 4.71875 -7 L 4.859375 -7.046875 Z M 6.625 -7.046875 L 6.90625 -7.046875 L 6.90625 -7.1875 L 6.625 -7.1875 Z M 5.28125 -6.8125 C 5.21875 -6.75 5.1875 -6.703125 5.1875 -6.671875 L 5.703125 -6.625 L 5.703125 -6.8125 L 5.328125 -6.90625 C 5.328125 -6.84375 5.3125 -6.8125 5.28125 -6.8125 Z M 7.328125 -6.859375 L 7.328125 -6.90625 L 7 -6.90625 L 7 -6.625 L 7.375 -6.671875 L 7.375 -6.8125 Z M 6.53125 -6.265625 L 6.4375 -6.578125 C 6.195312 -6.484375 6.03125 -6.394531 5.9375 -6.3125 C 5.96875 -6.28125 6.0625 -6.265625 6.21875 -6.265625 Z M 4.109375 -6.265625 L 4.53125 -6.265625 L 4.53125 -6.390625 L 4.109375 -6.390625 Z M 6.265625 -5.984375 L 6.265625 -5.84375 L 6.53125 -5.84375 L 6.53125 -5.984375 Z M 7.328125 -5.5625 C 7.515625 -5.65625 7.515625 -5.75 7.328125 -5.84375 L 7.28125 -5.796875 L 7.140625 -5.796875 C 7.140625 -5.703125 7.171875 -5.65625 7.234375 -5.65625 Z M 4.390625 -5.421875 C 4.484375 -5.359375 4.515625 -5.3125 4.484375 -5.28125 L 4.765625 -5.28125 C 4.859375 -5.34375 4.90625 -5.390625 4.90625 -5.421875 L 4.953125 -5.421875 C 4.953125 -5.453125 4.96875 -5.472656 5 -5.484375 C 5.03125 -5.503906 5.046875 -5.515625 5.046875 -5.515625 C 4.984375 -5.515625 4.953125 -5.53125 4.953125 -5.5625 L 4.71875 -5.5625 C 4.5 -5.625 4.375 -5.671875 4.34375 -5.703125 C 4.34375 -5.640625 4.328125 -5.59375 4.296875 -5.5625 C 4.296875 -5.5625 4.296875 -5.546875 4.296875 -5.515625 C 4.296875 -5.484375 4.296875 -5.46875 4.296875 -5.46875 L 4.34375 -5.421875 Z M 6.90625 -5.09375 C 7.03125 -5.03125 7.15625 -5 7.28125 -5 C 7.40625 -5 7.484375 -5.015625 7.515625 -5.046875 L 7.5625 -5.046875 L 7.5625 -5.421875 C 7.46875 -5.421875 7.390625 -5.453125 7.328125 -5.515625 C 7.296875 -5.484375 7.253906 -5.46875 7.203125 -5.46875 C 7.160156 -5.46875 7.125 -5.453125 7.09375 -5.421875 L 7.046875 -5.515625 L 6.90625 -5.46875 C 6.84375 -5.40625 6.84375 -5.28125 6.90625 -5.09375 Z M 0.28125 -5.09375 L 0.09375 -4.953125 L 0.234375 -4.8125 Z M 6.671875 -4.859375 L 6.8125 -4.765625 L 7 -5 L 6.8125 -5.046875 Z M 5.703125 -4.484375 C 5.859375 -4.484375 6.007812 -4.515625 6.15625 -4.578125 C 6.3125 -4.640625 6.40625 -4.734375 6.4375 -4.859375 L 6.21875 -4.859375 C 5.96875 -4.859375 5.796875 -4.796875 5.703125 -4.671875 Z M 6.03125 -4.4375 C 5.9375 -4.3125 5.9375 -4.21875 6.03125 -4.15625 L 5.984375 -4.015625 L 6.03125 -3.96875 L 6.03125 -3.875 L 6.265625 -3.828125 L 6.390625 -4.34375 C 6.273438 -4.40625 6.15625 -4.4375 6.03125 -4.4375 Z M 6.71875 -3.875 C 6.75 -3.84375 6.828125 -3.828125 6.953125 -3.828125 L 7.09375 -3.78125 L 7.1875 -3.78125 C 7.28125 -3.78125 7.347656 -3.796875 7.390625 -3.828125 C 7.441406 -3.859375 7.46875 -3.921875 7.46875 -4.015625 L 7.046875 -4.015625 C 6.953125 -4.015625 6.84375 -4.046875 6.71875 -4.109375 L 6.625 -3.875 Z M 5.09375 -3.921875 L 4.671875 -3.921875 L 4.671875 -3.734375 L 5.09375 -3.734375 Z M 7.375 -3.5 C 7.25 -3.5 7.128906 -3.4375 7.015625 -3.3125 C 6.910156 -3.1875 6.84375 -3.109375 6.8125 -3.078125 L 7.1875 -2.984375 C 7.46875 -3.078125 7.65625 -3.25 7.75 -3.5 Z M 6.71875 -3.359375 L 6.359375 -3.359375 C 6.359375 -3.328125 6.34375 -3.300781 6.3125 -3.28125 C 6.28125 -3.269531 6.265625 -3.265625 6.265625 -3.265625 L 6.171875 -3.078125 C 6.078125 -3.046875 6.015625 -2.984375 5.984375 -2.890625 L 5.984375 -2.703125 C 6.171875 -2.703125 6.265625 -2.6875 6.265625 -2.65625 L 6.21875 -2.46875 C 6.21875 -2.34375 6.234375 -2.265625 6.265625 -2.234375 L 6.53125 -2.328125 L 6.671875 -2.46875 L 6.71875 -2.984375 L 6.484375 -3.03125 C 6.609375 -3.03125 6.6875 -3.046875 6.71875 -3.078125 Z M 7.046875 -2.515625 C 7.140625 -2.515625 7.28125 -2.578125 7.46875 -2.703125 C 7.40625 -2.765625 7.234375 -2.796875 6.953125 -2.796875 Z M 7.75 -2.609375 L 7.421875 -2.609375 L 7.28125 -2.328125 L 7.65625 -2.328125 C 7.71875 -2.390625 7.75 -2.453125 7.75 -2.515625 Z M 7.75 -2.609375 "/></g></g></g><g fill="#004aad" fill-opacity="1"><g transform="translate(171.099826, 261.734001)"><g><path d="M 19.234375 -11.953125 C 19.296875 -11.265625 19.328125 -10.769531 19.328125 -10.46875 C 19.328125 -8.625 18.910156 -6.972656 18.078125 -5.515625 C 17.109375 -3.703125 15.617188 -2.328125 13.609375 -1.390625 C 11.609375 -0.460938 9.46875 0 7.1875 0 C 6.601562 0 6.171875 -0.015625 5.890625 -0.046875 L 1.78125 -0.421875 C 1.3125 -0.484375 1.0625 -0.71875 1.03125 -1.125 L -0.421875 -9.203125 L -0.421875 -9.34375 C -0.421875 -9.625 -0.328125 -9.84375 -0.140625 -10 C 0.046875 -10.15625 0.28125 -10.21875 0.5625 -10.1875 C 1.613281 -9.96875 2.375 -9.84375 2.84375 -9.8125 C 2.8125 -9.78125 2.8125 -9.75 2.84375 -9.71875 L 2.984375 -9.71875 C 2.984375 -9.71875 2.988281 -9.722656 3 -9.734375 C 3.019531 -9.753906 3.03125 -9.765625 3.03125 -9.765625 C 4.21875 -9.609375 5.234375 -9.53125 6.078125 -9.53125 C 6.753906 -9.53125 7.515625 -9.65625 8.359375 -9.90625 L 8.40625 -9.90625 C 8.78125 -10 9.0625 -10.289062 9.25 -10.78125 C 9.34375 -11.125 9.390625 -11.453125 9.390625 -11.765625 C 9.390625 -12.328125 9.265625 -12.84375 9.015625 -13.3125 C 9.015625 -13.34375 8.9375 -13.46875 8.78125 -13.6875 C 8.875 -13.78125 8.859375 -13.859375 8.734375 -13.921875 L 8.640625 -13.875 L 7.9375 -14.4375 C 7.59375 -14.6875 7.109375 -14.992188 6.484375 -15.359375 L 6.484375 -15.5 C 6.484375 -15.71875 6.410156 -15.84375 6.265625 -15.875 L 6.171875 -15.6875 C 6.140625 -15.65625 6.125 -15.609375 6.125 -15.546875 C 5.65625 -15.828125 5.390625 -15.96875 5.328125 -15.96875 C 5.015625 -16.09375 4.859375 -16.359375 4.859375 -16.765625 C 4.859375 -17.015625 4.96875 -17.234375 5.1875 -17.421875 L 6.765625 -18.640625 C 7.265625 -19.128906 7.515625 -19.375 7.515625 -19.375 L 7.5625 -19.375 C 8.09375 -20.0625 8.359375 -20.71875 8.359375 -21.34375 C 8.359375 -21.5625 8.34375 -21.71875 8.3125 -21.8125 L 8.265625 -21.859375 C 8.203125 -22.390625 8 -22.65625 7.65625 -22.65625 C 7.25 -22.65625 6.78125 -22.582031 6.25 -22.4375 C 5.726562 -22.300781 5.234375 -22.15625 4.765625 -22 C 3.234375 -21.46875 2.285156 -21.125 1.921875 -20.96875 C 1.734375 -20.875 1.5625 -20.859375 1.40625 -20.921875 L 1.40625 -22.140625 C 1.375 -22.203125 1.359375 -22.296875 1.359375 -22.421875 L 1.359375 -22.75 L 1.40625 -22.890625 L 1.40625 -23.53125 L 1.359375 -23.765625 L 1.21875 -23.953125 L 1.21875 -21.015625 C 1.15625 -21.015625 1.109375 -21.03125 1.078125 -21.0625 C 0.828125 -21.3125 0.71875 -21.578125 0.75 -21.859375 L 1.40625 -29.609375 C 1.4375 -30.046875 1.671875 -30.3125 2.109375 -30.40625 L 8.3125 -31.484375 C 9.925781 -31.722656 11.3125 -31.84375 12.46875 -31.84375 C 14.675781 -31.84375 16.34375 -31.394531 17.46875 -30.5 C 17.46875 -30.46875 17.484375 -30.453125 17.515625 -30.453125 C 18.722656 -29.328125 19.296875 -27.597656 19.234375 -25.265625 L 19.1875 -24.84375 L 19.140625 -24.84375 C 18.960938 -24.84375 18.875 -24.78125 18.875 -24.65625 L 18.96875 -24.46875 L 19.140625 -24.46875 C 18.960938 -23.226562 18.566406 -22.078125 17.953125 -21.015625 C 17.347656 -19.953125 16.5 -18.832031 15.40625 -17.65625 C 17.5 -16.09375 18.757812 -14.222656 19.1875 -12.046875 Z M 8.875 -31.0625 C 8.9375 -31 9.015625 -31 9.109375 -31.0625 C 9.265625 -31.125 9.296875 -31.171875 9.203125 -31.203125 Z M 11.484375 -30.640625 C 11.640625 -30.578125 11.734375 -30.5 11.765625 -30.40625 C 11.828125 -30.34375 11.9375 -30.3125 12.09375 -30.3125 C 12.25 -30.3125 12.34375 -30.34375 12.375 -30.40625 C 12.375 -30.4375 12.421875 -30.5 12.515625 -30.59375 L 12.1875 -30.78125 Z M 6.03125 -29.9375 C 5.21875 -29.9375 4.4375 -29.8125 3.6875 -29.5625 C 4.15625 -29.5 4.5 -29.484375 4.71875 -29.515625 L 5.1875 -29.5625 L 5.65625 -29.65625 C 5.84375 -29.6875 6.148438 -29.703125 6.578125 -29.703125 C 6.890625 -29.703125 7.1875 -29.65625 7.46875 -29.5625 L 10.234375 -29.5625 L 10.234375 -29.75 L 10.046875 -29.75 C 10.015625 -29.75 9.875 -29.78125 9.625 -29.84375 C 9.5 -29.875 9.390625 -29.890625 9.296875 -29.890625 C 9.203125 -29.890625 9.109375 -29.84375 9.015625 -29.75 L 8.875 -29.890625 L 8.6875 -29.75 L 8.546875 -29.890625 L 7.796875 -29.84375 L 7.1875 -29.890625 Z M 10.609375 -29.75 L 10.734375 -29.5625 L 10.734375 -29.75 Z M 13.125 -29.75 C 12.9375 -29.71875 12.6875 -29.703125 12.375 -29.703125 L 11.578125 -29.703125 L 16.53125 -29.375 C 16 -29.5625 15.5625 -29.671875 15.21875 -29.703125 C 14.820312 -29.734375 14.359375 -29.75 13.828125 -29.75 Z M 9.71875 -28.484375 C 11.300781 -28.484375 12.601562 -28.503906 13.625 -28.546875 C 14.65625 -28.597656 15.640625 -28.703125 16.578125 -28.859375 L 16.53125 -28.859375 L 12.9375 -28.671875 L 12.796875 -28.859375 C 12.578125 -28.703125 12.40625 -28.625 12.28125 -28.625 C 12.15625 -28.625 12.050781 -28.640625 11.96875 -28.671875 C 11.894531 -28.703125 11.828125 -28.734375 11.765625 -28.765625 C 11.453125 -28.828125 11.28125 -28.859375 11.25 -28.859375 C 11.0625 -28.859375 10.890625 -28.796875 10.734375 -28.671875 L 9.953125 -28.625 L 9.109375 -28.671875 C 8.484375 -28.671875 7.9375 -28.609375 7.46875 -28.484375 C 7.25 -28.609375 7.046875 -28.671875 6.859375 -28.671875 C 6.765625 -28.671875 6.535156 -28.640625 6.171875 -28.578125 C 5.984375 -28.515625 5.828125 -28.484375 5.703125 -28.484375 C 5.359375 -28.484375 5.109375 -28.609375 4.953125 -28.859375 C 4.796875 -28.671875 4.640625 -28.578125 4.484375 -28.578125 L 3.921875 -28.578125 C 3.734375 -28.640625 3.5625 -28.640625 3.40625 -28.578125 C 3.25 -28.546875 3.125 -28.4375 3.03125 -28.25 C 3.9375 -28.375 5.015625 -28.4375 6.265625 -28.4375 C 7.003906 -28.4375 7.578125 -28.453125 7.984375 -28.484375 Z M 17.515625 -24.1875 L 17.703125 -24.1875 L 17.703125 -24.328125 L 17.5625 -24.328125 Z M 15.453125 -16.8125 L 14.8125 -16.8125 L 14.8125 -16.671875 L 15.453125 -16.671875 Z M 6.859375 -15.640625 L 7 -15.78125 L 7.046875 -15.875 C 6.984375 -15.96875 6.9375 -16.03125 6.90625 -16.0625 C 6.90625 -16.09375 6.894531 -16.113281 6.875 -16.125 C 6.863281 -16.144531 6.859375 -16.171875 6.859375 -16.203125 C 6.828125 -16.265625 6.796875 -16.34375 6.765625 -16.4375 C 6.734375 -16.53125 6.703125 -16.59375 6.671875 -16.625 C 6.609375 -16.6875 6.5625 -16.71875 6.53125 -16.71875 C 6.5 -16.71875 6.488281 -16.691406 6.5 -16.640625 C 6.519531 -16.597656 6.546875 -16.5625 6.578125 -16.53125 L 6.578125 -16.15625 C 6.578125 -16.0625 6.597656 -15.941406 6.640625 -15.796875 C 6.691406 -15.660156 6.734375 -15.59375 6.765625 -15.59375 Z M 9.765625 -16.109375 C 9.765625 -16.296875 9.828125 -16.40625 9.953125 -16.4375 C 10.140625 -16.4375 10.296875 -16.453125 10.421875 -16.484375 C 10.390625 -16.546875 10.25 -16.546875 10 -16.484375 L 9.53125 -16.484375 C 9.4375 -16.484375 9.390625 -16.46875 9.390625 -16.4375 C 9.359375 -16.4375 9.3125 -16.40625 9.25 -16.34375 C 9.3125 -16.28125 9.390625 -16.222656 9.484375 -16.171875 C 9.578125 -16.128906 9.671875 -16.109375 9.765625 -16.109375 Z M 12.328125 -16.296875 L 12.328125 -16.4375 L 11.953125 -16.4375 L 11.953125 -16.296875 Z M 11.0625 -16.203125 C 11.25 -16.203125 11.359375 -16.171875 11.390625 -16.109375 L 11.390625 -15.828125 C 11.359375 -15.734375 11.453125 -15.6875 11.671875 -15.6875 C 11.765625 -15.8125 11.84375 -15.875 11.90625 -15.875 C 11.8125 -15.96875 11.765625 -16.015625 11.765625 -16.015625 L 11.625 -16.109375 L 11.8125 -16.25 C 11.78125 -16.28125 11.671875 -16.296875 11.484375 -16.296875 C 11.421875 -16.296875 11.296875 -16.328125 11.109375 -16.390625 Z M 9.015625 -16.25 L 9.203125 -16.109375 L 9.296875 -16.203125 L 9.015625 -16.296875 Z M 10.28125 -15.828125 C 10.40625 -15.828125 10.523438 -15.859375 10.640625 -15.921875 C 10.585938 -15.921875 10.515625 -15.96875 10.421875 -16.0625 L 10.1875 -16.15625 C 10.0625 -16.0625 10 -15.96875 10 -15.875 Z M 11.8125 -15.359375 C 12.09375 -15.234375 12.34375 -15.1875 12.5625 -15.21875 L 12.5625 -15.921875 C 12.40625 -15.828125 12.328125 -15.765625 12.328125 -15.734375 C 12.328125 -15.671875 12.28125 -15.59375 12.1875 -15.5 L 12.140625 -15.5 C 12.140625 -15.53125 12.09375 -15.546875 12 -15.546875 C 11.90625 -15.546875 11.859375 -15.515625 11.859375 -15.453125 L 11.859375 -15.40625 Z M 9.625 -15.453125 C 9.4375 -15.453125 9.34375 -15.515625 9.34375 -15.640625 C 9.34375 -15.765625 9.34375 -15.828125 9.34375 -15.828125 C 9.28125 -15.828125 9.21875 -15.8125 9.15625 -15.78125 C 9.09375 -15.75 9.0625 -15.703125 9.0625 -15.640625 L 9.0625 -15.40625 L 9.4375 -15.40625 Z M 11.0625 -15.78125 L 10.875 -15.828125 C 10.875 -15.671875 10.828125 -15.546875 10.734375 -15.453125 L 10.96875 -15.453125 C 11.125 -15.546875 11.203125 -15.640625 11.203125 -15.734375 Z M 7.28125 -15.78125 L 7.09375 -15.734375 C 7.09375 -15.703125 7.0625 -15.6875 7 -15.6875 L 6.953125 -15.6875 L 7 -15.59375 L 7 -15.546875 L 7.28125 -15.546875 Z M 7.9375 -15.59375 L 8.125 -15.59375 L 8.21875 -15.6875 L 8.03125 -15.734375 Z M 11.625 -15.5 L 11.578125 -15.546875 L 11.390625 -15.5 L 11.390625 -15.40625 Z M 9.25 -15.078125 L 9.015625 -15.078125 L 9.0625 -15.171875 C 9.09375 -15.203125 9.109375 -15.265625 9.109375 -15.359375 C 8.953125 -15.265625 8.84375 -15.234375 8.78125 -15.265625 C 8.71875 -15.328125 8.640625 -15.359375 8.546875 -15.359375 C 8.546875 -15.359375 8.609375 -15.296875 8.734375 -15.171875 C 8.734375 -15.171875 8.78125 -15.125 8.875 -15.03125 L 8.875 -14.984375 L 9.25 -14.984375 Z M 10.734375 -14.765625 C 10.734375 -14.847656 10.71875 -14.890625 10.6875 -14.890625 C 10.6875 -14.984375 10.703125 -15.046875 10.734375 -15.078125 C 10.734375 -15.109375 10.703125 -15.15625 10.640625 -15.21875 L 10.421875 -15.21875 C 10.328125 -15.0625 10.34375 -14.910156 10.46875 -14.765625 Z M 11.390625 -15.03125 C 11.390625 -15.125 11.34375 -15.1875 11.25 -15.21875 L 11.15625 -15.171875 L 11.015625 -15.125 L 11.0625 -15.03125 L 11.0625 -14.984375 C 11.15625 -14.984375 11.21875 -15 11.25 -15.03125 Z M 7.9375 -15.03125 L 7.796875 -15.03125 L 7.65625 -15.078125 L 7.375 -14.890625 L 7.609375 -14.765625 L 7.796875 -14.671875 Z M 8.5 -14.625 C 8.625 -14.75 8.625 -14.828125 8.5 -14.859375 C 8.40625 -14.859375 8.3125 -14.828125 8.21875 -14.765625 Z M 11.203125 -14.71875 L 10.875 -14.765625 C 10.75 -14.765625 10.671875 -14.75 10.640625 -14.71875 C 10.640625 -14.59375 10.6875 -14.5 10.78125 -14.4375 Z M 8.171875 -14.625 L 7.984375 -14.625 L 7.984375 -14.4375 L 8.171875 -14.4375 Z M 10.046875 -13.78125 C 10.078125 -13.6875 10.15625 -13.625 10.28125 -13.59375 L 10.515625 -13.546875 C 10.578125 -13.671875 10.546875 -13.75 10.421875 -13.78125 Z M 11.0625 -13.3125 C 11.125 -13.3125 11.15625 -13.359375 11.15625 -13.453125 L 11.0625 -13.734375 L 11.0625 -13.78125 L 10.96875 -13.78125 L 10.921875 -13.6875 L 10.96875 -13.3125 Z M 10.140625 -13.078125 C 10.140625 -13.109375 10.109375 -13.15625 10.046875 -13.21875 L 9.953125 -13.3125 L 9.90625 -13.3125 L 9.859375 -13.359375 L 9.859375 -13.03125 L 10 -13.03125 Z M 12.1875 -12.609375 L 12.375 -12.609375 L 12.375 -12.703125 C 12.375 -12.703125 12.363281 -12.707031 12.34375 -12.71875 C 12.332031 -12.738281 12.328125 -12.75 12.328125 -12.75 L 12.1875 -12.84375 C 12.03125 -12.75 11.953125 -12.65625 11.953125 -12.5625 L 12.09375 -12.5625 Z M 11.671875 -11.953125 L 12.046875 -11.90625 L 12.046875 -12 L 11.671875 -12.09375 Z M 13.453125 -11.015625 C 13.453125 -10.890625 13.5625 -10.828125 13.78125 -10.828125 C 13.9375 -10.828125 14.015625 -10.90625 14.015625 -11.0625 C 14.015625 -11.125 14 -11.15625 13.96875 -11.15625 L 13.921875 -11.15625 L 13.921875 -11.203125 L 13.828125 -11.25 L 13.546875 -11.25 Z M 12.046875 -11.203125 L 11.90625 -11.0625 L 12.09375 -11.015625 L 12.1875 -11.15625 Z M 12.328125 -9.765625 C 12.328125 -9.765625 12.332031 -9.753906 12.34375 -9.734375 C 12.363281 -9.722656 12.375 -9.71875 12.375 -9.71875 L 12.421875 -9.71875 C 12.421875 -9.6875 12.4375 -9.671875 12.46875 -9.671875 L 12.75 -9.671875 C 12.75 -9.734375 12.765625 -9.765625 12.796875 -9.765625 L 12.796875 -9.8125 C 12.796875 -9.8125 12.800781 -9.816406 12.8125 -9.828125 C 12.832031 -9.847656 12.84375 -9.859375 12.84375 -9.859375 C 12.78125 -9.890625 12.734375 -9.9375 12.703125 -10 L 12.375 -10 Z M 14.578125 -9.8125 L 14.34375 -9.859375 L 14.203125 -9.90625 C 14.140625 -9.84375 14.109375 -9.796875 14.109375 -9.765625 L 14.15625 -9.578125 L 14.34375 -9.625 Z M 13.453125 -9.53125 C 13.390625 -9.53125 13.34375 -9.515625 13.3125 -9.484375 L 13.265625 -9.484375 L 13.171875 -9.4375 C 12.984375 -9.4375 12.859375 -9.421875 12.796875 -9.390625 L 12.796875 -9.34375 C 12.796875 -9.28125 12.90625 -9.1875 13.125 -9.0625 L 13.21875 -9.109375 L 13.3125 -9.203125 L 13.359375 -9.203125 L 13.40625 -9.25 C 13.40625 -9.25 13.410156 -9.253906 13.421875 -9.265625 C 13.441406 -9.285156 13.453125 -9.296875 13.453125 -9.296875 Z M 13.21875 -7.9375 C 13.25 -7.9375 13.265625 -7.96875 13.265625 -8.03125 C 13.265625 -8.09375 13.15625 -8.21875 12.9375 -8.40625 L 12.84375 -8.359375 L 12.84375 -8.3125 L 12.75 -8.265625 C 12.6875 -8.203125 12.640625 -8.171875 12.609375 -8.171875 L 12.5625 -8.21875 L 12.375 -8.265625 C 12.28125 -8.296875 12.171875 -8.3125 12.046875 -8.3125 C 11.953125 -8.3125 11.90625 -8.296875 11.90625 -8.265625 L 11.90625 -8.125 L 11.953125 -8.078125 L 11.953125 -8.03125 C 11.953125 -8 11.984375 -7.984375 12.046875 -7.984375 C 12.109375 -7.953125 12.203125 -7.9375 12.328125 -7.9375 L 12.609375 -7.890625 L 12.609375 -7.84375 L 12.703125 -7.84375 L 12.9375 -7.75 C 12.96875 -7.75 12.984375 -7.765625 12.984375 -7.796875 L 13.21875 -7.796875 Z M 14.203125 -8.125 C 14.234375 -8.125 14.25 -8.171875 14.25 -8.265625 L 13.96875 -8.265625 C 13.96875 -8.171875 13.921875 -8.09375 13.828125 -8.03125 L 14.203125 -8.03125 Z M 13.734375 -7.9375 L 13.734375 -7.65625 L 13.921875 -7.65625 L 13.921875 -7.9375 Z M 12.328125 -7.140625 L 12.609375 -7.28125 C 12.734375 -7.375 12.796875 -7.4375 12.796875 -7.46875 L 12.796875 -7.609375 L 12.375 -7.609375 L 12.1875 -7.5625 L 12.046875 -7.46875 C 11.890625 -7.40625 11.8125 -7.34375 11.8125 -7.28125 L 11.8125 -7.140625 Z M 13.921875 -6.765625 C 14.078125 -6.828125 14.15625 -6.90625 14.15625 -7 C 14.15625 -7.0625 14.046875 -7.171875 13.828125 -7.328125 C 13.671875 -7.296875 13.59375 -7.203125 13.59375 -7.046875 C 13.59375 -6.953125 13.65625 -6.84375 13.78125 -6.71875 Z M 12.84375 -7.046875 C 12.84375 -7.109375 12.796875 -7.140625 12.703125 -7.140625 L 12.5625 -7.140625 L 12.375 -7 L 12.375 -6.859375 C 12.53125 -6.796875 12.6875 -6.796875 12.84375 -6.859375 Z M 11.953125 -6.265625 L 11.90625 -6.390625 L 11.90625 -6.4375 L 11.8125 -6.484375 C 11.75 -6.421875 11.71875 -6.378906 11.71875 -6.359375 L 11.71875 -6.171875 C 11.8125 -6.171875 11.875 -6.1875 11.90625 -6.21875 L 11.90625 -6.265625 Z M 10.28125 -5.5625 C 10.46875 -5.5 10.585938 -5.46875 10.640625 -5.46875 C 10.640625 -5.65625 10.597656 -5.75 10.515625 -5.75 C 10.515625 -5.75 10.503906 -5.738281 10.484375 -5.71875 C 10.472656 -5.707031 10.46875 -5.703125 10.46875 -5.703125 L 10.421875 -5.703125 Z M 12.890625 -5.5625 L 12.84375 -5.703125 L 12.84375 -5.75 L 12.375 -5.703125 Z M 10.875 -5 C 11.0625 -5 11.15625 -5.046875 11.15625 -5.140625 C 11.0625 -5.234375 10.9375 -5.28125 10.78125 -5.28125 L 10.6875 -5 Z M 10.09375 -5.1875 L 9.90625 -5.1875 L 9.90625 -5 L 10.09375 -5 Z M 1.3125 -4.53125 C 1.4375 -4.53125 1.53125 -4.5625 1.59375 -4.625 C 1.46875 -4.71875 1.347656 -4.769531 1.234375 -4.78125 C 1.128906 -4.800781 1.03125 -4.765625 0.9375 -4.671875 C 1 -4.640625 1.035156 -4.597656 1.046875 -4.546875 C 1.066406 -4.503906 1.0625 -4.484375 1.03125 -4.484375 Z M 1.96875 -4.71875 C 1.96875 -4.59375 2.015625 -4.546875 2.109375 -4.578125 L 2.1875 -4.625 L 2.1875 -4.671875 C 2.1875 -4.671875 2.175781 -4.675781 2.15625 -4.6875 C 2.144531 -4.707031 2.140625 -4.71875 2.140625 -4.71875 L 2.0625 -4.765625 Z M 10.96875 -4.296875 L 10.640625 -4.296875 C 10.617188 -4.296875 10.609375 -4.28125 10.609375 -4.25 L 10.640625 -4.0625 Z M 2.421875 -4.15625 C 2.390625 -4.1875 2.34375 -4.203125 2.28125 -4.203125 C 2.25 -4.171875 2.203125 -4.15625 2.140625 -4.15625 L 2.015625 -3.96875 L 2.0625 -3.921875 L 2.140625 -3.921875 L 2.234375 -4.015625 C 2.234375 -3.953125 2.359375 -3.9375 2.609375 -3.96875 C 2.546875 -4.09375 2.484375 -4.15625 2.421875 -4.15625 Z M 1.640625 -3.59375 L 1.359375 -3.6875 L 1.359375 -3.59375 L 1.59375 -3.546875 Z M 3.359375 -2.984375 C 3.359375 -2.984375 3.363281 -2.988281 3.375 -3 C 3.394531 -3.019531 3.40625 -3.03125 3.40625 -3.03125 L 3.40625 -3.171875 C 3.375 -3.171875 3.332031 -3.175781 3.28125 -3.1875 C 3.238281 -3.207031 3.203125 -3.203125 3.171875 -3.171875 C 2.953125 -3.171875 2.84375 -3.21875 2.84375 -3.3125 C 2.84375 -3.3125 2.8125 -3.34375 2.75 -3.40625 L 2.46875 -3.5 C 2.4375 -3.53125 2.34375 -3.5625 2.1875 -3.59375 C 2.101562 -3.625 2.03125 -3.628906 1.96875 -3.609375 C 1.90625 -3.597656 1.84375 -3.59375 1.78125 -3.59375 L 1.78125 -3.5 L 2.015625 -3.3125 C 2.160156 -3.21875 2.25 -3.1875 2.28125 -3.21875 C 2.28125 -3.25 2.296875 -3.265625 2.328125 -3.265625 L 2.84375 -3.125 L 3.078125 -3.03125 L 3.3125 -2.984375 Z M 5.09375 -3.453125 C 5.125 -3.453125 5.140625 -3.484375 5.140625 -3.546875 C 5.109375 -3.546875 5.09375 -3.5625 5.09375 -3.59375 L 5.046875 -3.59375 C 5.015625 -3.59375 4.984375 -3.5625 4.953125 -3.5 C 4.921875 -3.4375 4.953125 -3.40625 5.046875 -3.40625 C 5.046875 -3.40625 5.050781 -3.410156 5.0625 -3.421875 C 5.082031 -3.441406 5.09375 -3.453125 5.09375 -3.453125 Z M 3.875 -3.3125 L 4.0625 -3.265625 L 4.109375 -3.3125 L 4.203125 -3.5 C 4.109375 -3.5 4.046875 -3.515625 4.015625 -3.546875 L 3.921875 -3.546875 L 3.921875 -3.453125 L 3.875 -3.359375 Z M 4.25 -3.03125 C 4.21875 -3.0625 4.1875 -3.082031 4.15625 -3.09375 C 4.125 -3.113281 4.109375 -3.140625 4.109375 -3.171875 C 3.984375 -3.296875 3.890625 -3.296875 3.828125 -3.171875 L 3.78125 -2.984375 L 4.203125 -2.984375 Z M 2.28125 -3.03125 C 2.3125 -3.0625 2.328125 -3.109375 2.328125 -3.171875 L 2.234375 -3.125 C 2.234375 -3.09375 2.25 -3.078125 2.28125 -3.078125 Z M 4.953125 -2.890625 C 4.953125 -2.984375 4.984375 -3.03125 5.046875 -3.03125 L 4.671875 -3.03125 C 4.734375 -2.9375 4.828125 -2.890625 4.953125 -2.890625 Z M 3.078125 -2.703125 C 3.078125 -2.703125 3.066406 -2.707031 3.046875 -2.71875 C 3.035156 -2.738281 3.03125 -2.75 3.03125 -2.75 L 2.703125 -2.84375 L 2.65625 -2.84375 C 2.59375 -2.84375 2.5625 -2.796875 2.5625 -2.703125 C 2.5625 -2.609375 2.582031 -2.550781 2.625 -2.53125 C 2.675781 -2.519531 2.75 -2.515625 2.84375 -2.515625 L 3.03125 -2.609375 Z M 3.59375 -1.828125 L 3.5 -1.921875 C 3.5 -1.921875 3.488281 -1.910156 3.46875 -1.890625 C 3.457031 -1.878906 3.453125 -1.875 3.453125 -1.875 L 3.453125 -1.828125 L 3.40625 -1.78125 L 3.5 -1.78125 Z M 3.59375 -1.828125 "/></g></g></g><g fill="#004aad" fill-opacity="1"><g transform="translate(192.86167, 261.734001)"><g><path d="M 8.921875 -31.4375 C 8.921875 -31.6875 8.828125 -31.910156 8.640625 -32.109375 C 8.453125 -32.304688 8.234375 -32.40625 7.984375 -32.40625 L 1.96875 -32.546875 C 1.34375 -32.546875 1.015625 -32.253906 0.984375 -31.671875 L -0.46875 -0.984375 C -0.46875 -0.703125 -0.375 -0.46875 -0.1875 -0.28125 C 0 -0.09375 0.234375 0 0.515625 0 L 18.40625 -0.890625 C 19.019531 -0.890625 19.328125 -1.203125 19.328125 -1.828125 L 19.46875 -8.546875 C 19.46875 -8.828125 19.375 -9.0625 19.1875 -9.25 C 19.007812 -9.4375 18.78125 -9.53125 18.5 -9.53125 L 7.796875 -9.390625 Z M 6.859375 -30.21875 L 6.765625 -30.03125 L 6.671875 -30.078125 L 6.765625 -30.21875 Z M 8.3125 -21.71875 L 8.21875 -21.671875 C 8.125 -21.671875 8.078125 -21.703125 8.078125 -21.765625 C 8.046875 -21.765625 8.03125 -21.78125 8.03125 -21.8125 C 8.03125 -21.9375 8.09375 -22 8.21875 -22 C 8.28125 -22 8.3125 -21.984375 8.3125 -21.953125 L 8.40625 -21.953125 L 8.40625 -21.765625 Z M 6.953125 -20.078125 C 6.984375 -20.078125 6.984375 -20.046875 6.953125 -19.984375 C 6.890625 -19.921875 6.84375 -19.890625 6.8125 -19.890625 L 6.53125 -19.890625 L 6.53125 -20.125 Z M 5.1875 -17.65625 C 5.1875 -17.65625 5.175781 -17.644531 5.15625 -17.625 C 5.144531 -17.613281 5.140625 -17.609375 5.140625 -17.609375 C 5.109375 -17.578125 5.066406 -17.566406 5.015625 -17.578125 C 4.972656 -17.597656 4.953125 -17.625 4.953125 -17.65625 C 4.953125 -17.65625 4.941406 -17.671875 4.921875 -17.703125 C 4.910156 -17.734375 4.890625 -17.75 4.859375 -17.75 L 5.046875 -17.84375 L 5.1875 -17.84375 Z M 3.828125 -11.109375 C 3.828125 -11.015625 3.75 -10.910156 3.59375 -10.796875 C 3.4375 -10.691406 3.296875 -10.640625 3.171875 -10.640625 C 2.953125 -10.640625 2.828125 -10.671875 2.796875 -10.734375 L 2.75 -10.921875 C 2.75 -11.015625 2.796875 -11.125 2.890625 -11.25 C 3.015625 -11.375 3.140625 -11.4375 3.265625 -11.4375 C 3.328125 -11.4375 3.4375 -11.40625 3.59375 -11.34375 C 3.75 -11.28125 3.828125 -11.203125 3.828125 -11.109375 Z M 3.546875 -6.671875 C 3.484375 -6.671875 3.4375 -6.6875 3.40625 -6.71875 L 3.171875 -6.71875 L 3.171875 -6.953125 L 3.546875 -6.90625 Z M 6.265625 -6.4375 L 6.265625 -6.53125 L 6.625 -6.484375 L 6.625 -6.359375 Z M 11.203125 -6.3125 C 11.203125 -6.28125 11.175781 -6.238281 11.125 -6.1875 C 11.082031 -6.144531 11.03125 -6.125 10.96875 -6.125 C 10.78125 -6.125 10.660156 -6.171875 10.609375 -6.265625 L 10.734375 -6.4375 L 11.0625 -6.4375 Z M 9.0625 -5.75 L 9.0625 -5.703125 L 8.96875 -5.65625 L 8.96875 -5.5625 L 8.828125 -5.5625 C 8.765625 -5.5625 8.71875 -5.578125 8.6875 -5.609375 C 8.71875 -5.703125 8.78125 -5.765625 8.875 -5.796875 L 9.15625 -5.796875 Z M 8.125 -5.609375 C 8.1875 -5.578125 8.203125 -5.535156 8.171875 -5.484375 C 8.140625 -5.441406 8.09375 -5.421875 8.03125 -5.421875 C 7.96875 -5.484375 7.9375 -5.53125 7.9375 -5.5625 L 7.9375 -5.703125 Z M 10.09375 -5.46875 L 9.8125 -5.5625 L 9.859375 -5.703125 L 10.1875 -5.609375 Z M 4.578125 -5.234375 C 4.453125 -5.234375 4.390625 -5.203125 4.390625 -5.140625 L 4.25 -5.234375 C 4.21875 -5.234375 4.203125 -5.265625 4.203125 -5.328125 C 4.203125 -5.453125 4.265625 -5.515625 4.390625 -5.515625 L 4.484375 -5.46875 C 4.484375 -5.4375 4.515625 -5.421875 4.578125 -5.421875 Z M 5.609375 -4.671875 C 5.546875 -4.671875 5.46875 -4.640625 5.375 -4.578125 C 5.34375 -4.765625 5.34375 -4.921875 5.375 -5.046875 C 5.4375 -5.046875 5.484375 -5.03125 5.515625 -5 L 5.609375 -5 Z M 10.09375 -5 C 10.25 -5 10.390625 -4.90625 10.515625 -4.71875 C 10.515625 -4.625 10.441406 -4.546875 10.296875 -4.484375 C 10.160156 -4.421875 10.046875 -4.390625 9.953125 -4.390625 C 9.703125 -4.390625 9.578125 -4.5 9.578125 -4.71875 C 9.578125 -4.8125 9.65625 -4.875 9.8125 -4.90625 Z M 5.375 -4.15625 C 5.375 -4.15625 5.363281 -4.160156 5.34375 -4.171875 C 5.332031 -4.191406 5.328125 -4.203125 5.328125 -4.203125 C 5.328125 -4.265625 5.3125 -4.296875 5.28125 -4.296875 C 5.25 -4.328125 5.21875 -4.347656 5.1875 -4.359375 C 5.15625 -4.378906 5.140625 -4.40625 5.140625 -4.4375 C 5.203125 -4.4375 5.25 -4.453125 5.28125 -4.484375 C 5.3125 -4.515625 5.347656 -4.515625 5.390625 -4.484375 C 5.441406 -4.453125 5.46875 -4.421875 5.46875 -4.390625 C 5.46875 -4.328125 5.5 -4.296875 5.5625 -4.296875 Z M 9.8125 -3.59375 C 9.8125 -3.65625 9.859375 -3.703125 9.953125 -3.734375 L 10.140625 -3.734375 L 10.140625 -3.6875 L 10.234375 -3.640625 L 10.140625 -3.546875 Z M 2.421875 -3.453125 C 2.546875 -3.578125 2.703125 -3.640625 2.890625 -3.640625 L 3.078125 -3.59375 L 3.171875 -3.546875 L 2.984375 -3.359375 Z M 2.234375 -3.40625 L 2.140625 -3.359375 L 2.109375 -3.453125 L 2.1875 -3.453125 Z M 17.703125 -3.125 C 17.640625 -3.0625 17.609375 -3.078125 17.609375 -3.171875 C 17.609375 -3.265625 17.640625 -3.3125 17.703125 -3.3125 C 17.734375 -3.3125 17.753906 -3.285156 17.765625 -3.234375 C 17.785156 -3.191406 17.765625 -3.15625 17.703125 -3.125 Z M 6.21875 -2.984375 C 6.1875 -2.953125 6.140625 -2.9375 6.078125 -2.9375 C 6.015625 -2.9375 5.984375 -2.90625 5.984375 -2.84375 C 5.921875 -2.90625 5.875 -2.9375 5.84375 -2.9375 C 5.8125 -2.9375 5.796875 -2.984375 5.796875 -3.078125 C 5.796875 -3.140625 5.8125 -3.171875 5.84375 -3.171875 C 5.84375 -3.171875 5.847656 -3.175781 5.859375 -3.1875 C 5.878906 -3.207031 5.890625 -3.21875 5.890625 -3.21875 L 6.125 -3.21875 L 6.21875 -3.171875 Z M 11.15625 -2.65625 C 11.0625 -2.625 10.953125 -2.609375 10.828125 -2.609375 C 10.796875 -2.640625 10.753906 -2.644531 10.703125 -2.625 C 10.660156 -2.613281 10.628906 -2.609375 10.609375 -2.609375 L 10.421875 -2.609375 L 10.421875 -2.75 C 10.453125 -2.8125 10.503906 -2.863281 10.578125 -2.90625 C 10.648438 -2.957031 10.734375 -2.984375 10.828125 -2.984375 C 10.859375 -2.984375 10.90625 -2.953125 10.96875 -2.890625 L 11.15625 -2.796875 Z M 2.65625 -2.84375 L 2.421875 -2.75 L 2.421875 -2.84375 L 2.609375 -2.890625 Z M 7.375 -2.75 C 7.375 -2.6875 7.328125 -2.65625 7.234375 -2.65625 C 7.140625 -2.65625 7.0625 -2.640625 7 -2.609375 L 7 -2.703125 C 7 -2.703125 7 -2.734375 7 -2.796875 L 7.1875 -2.75 Z M 6.171875 -2.515625 C 6.140625 -2.484375 6.09375 -2.46875 6.03125 -2.46875 L 6.03125 -2.609375 L 6.21875 -2.5625 Z M 6.171875 -2.515625 "/></g></g></g><g fill="#004aad" fill-opacity="1"><g transform="translate(213.969723, 261.734001)"><g><path d="M 23.078125 -31.203125 C 23.140625 -31.109375 23.171875 -30.953125 23.171875 -30.734375 C 23.171875 -30.578125 23.15625 -30.453125 23.125 -30.359375 L 14.671875 -9.71875 L 14.390625 -1.078125 C 14.390625 -0.453125 14.078125 -0.140625 13.453125 -0.140625 L 7.28125 0 C 6.96875 0 6.71875 -0.0976562 6.53125 -0.296875 C 6.351562 -0.503906 6.28125 -0.75 6.3125 -1.03125 L 7.046875 -8.78125 L 6.53125 -10.140625 C 3.789062 -17.734375 2.175781 -22.257812 1.6875 -23.71875 L 0.84375 -25.96875 C 0.34375 -27.269531 -0.0625 -28.421875 -0.375 -29.421875 C -0.40625 -29.484375 -0.421875 -29.578125 -0.421875 -29.703125 C -0.421875 -29.921875 -0.359375 -30.109375 -0.234375 -30.265625 C -0.109375 -30.421875 0.03125 -30.53125 0.1875 -30.59375 L 5.1875 -32.359375 C 5.375 -32.421875 5.515625 -32.453125 5.609375 -32.453125 C 5.953125 -32.453125 6.210938 -32.238281 6.390625 -31.8125 L 10.96875 -19.890625 L 11.953125 -22.234375 L 12.140625 -22.28125 L 11.953125 -22.328125 L 15.921875 -31.671875 C 16.109375 -32.128906 16.4375 -32.328125 16.90625 -32.265625 L 22.328125 -31.671875 C 22.609375 -31.671875 22.859375 -31.515625 23.078125 -31.203125 Z M 22.421875 -30.125 C 22.359375 -30.125 22.328125 -30.15625 22.328125 -30.21875 C 22.328125 -30.21875 22.316406 -30.222656 22.296875 -30.234375 C 22.285156 -30.253906 22.265625 -30.265625 22.234375 -30.265625 L 21.25 -30.265625 C 20.96875 -30.421875 20.796875 -30.5 20.734375 -30.5 L 20.546875 -30.640625 C 20.484375 -30.640625 20.390625 -30.671875 20.265625 -30.734375 C 20.046875 -30.609375 19.828125 -30.546875 19.609375 -30.546875 C 19.421875 -30.546875 19.3125 -30.578125 19.28125 -30.640625 C 18.914062 -30.859375 18.609375 -31.015625 18.359375 -31.109375 C 18.109375 -31.171875 17.796875 -31.203125 17.421875 -31.203125 C 17.359375 -31.203125 17.285156 -31.171875 17.203125 -31.109375 C 17.128906 -31.046875 17.09375 -30.984375 17.09375 -30.921875 C 17.09375 -30.734375 17.203125 -30.625 17.421875 -30.59375 C 17.640625 -30.5625 17.796875 -30.53125 17.890625 -30.5 C 17.984375 -30.46875 18.125 -30.40625 18.3125 -30.3125 C 18.5 -30.21875 18.75 -30.171875 19.0625 -30.171875 L 19.609375 -30.171875 L 19.984375 -30.03125 L 20.828125 -29.75 L 21.671875 -29.421875 C 21.921875 -29.328125 22.078125 -29.28125 22.140625 -29.28125 L 22.421875 -29.328125 Z M 2.421875 -30.078125 C 2.671875 -30.140625 2.796875 -30.203125 2.796875 -30.265625 C 2.578125 -30.453125 2.421875 -30.546875 2.328125 -30.546875 C 2.148438 -30.546875 1.96875 -30.453125 1.78125 -30.265625 C 1.875 -30.203125 1.9375 -30.09375 1.96875 -29.9375 Z M 1.21875 -30.265625 C 1.15625 -30.265625 1.125 -30.3125 1.125 -30.40625 C 1.03125 -30.375 0.984375 -30.328125 0.984375 -30.265625 L 1.03125 -30.171875 Z M 3.640625 -30.265625 L 3.5 -30.359375 L 3.359375 -30.40625 C 3.203125 -30.34375 3.125 -30.28125 3.125 -30.21875 C 3.1875 -30.1875 3.28125 -30.171875 3.40625 -30.171875 Z M 15.21875 -22.84375 C 15.3125 -22.9375 15.375 -22.984375 15.40625 -22.984375 L 15.265625 -23.125 C 15.015625 -23.125 14.878906 -23.109375 14.859375 -23.078125 L 14.71875 -23.078125 L 14.71875 -22.890625 C 14.75 -22.828125 14.835938 -22.796875 14.984375 -22.796875 C 15.078125 -22.796875 15.15625 -22.8125 15.21875 -22.84375 Z M 11.109375 -19.703125 C 11.171875 -19.640625 11.296875 -19.640625 11.484375 -19.703125 L 11.484375 -19.84375 L 11.109375 -19.890625 L 11.109375 -19.796875 L 11.0625 -19.796875 Z M 10.828125 -19.109375 C 10.828125 -19.109375 10.707031 -19.03125 10.46875 -18.875 L 11.015625 -18.875 C 11.140625 -18.875 11.265625 -18.9375 11.390625 -19.0625 L 11.203125 -19.109375 L 11.015625 -19.140625 C 10.890625 -19.140625 10.828125 -19.128906 10.828125 -19.109375 Z M 11.109375 -18.125 C 11.171875 -18.125 11.265625 -18.15625 11.390625 -18.21875 L 11.578125 -18.125 L 11.765625 -18.125 C 11.765625 -18.15625 11.796875 -18.171875 11.859375 -18.171875 C 11.734375 -18.234375 11.671875 -18.296875 11.671875 -18.359375 C 11.671875 -18.421875 11.609375 -18.453125 11.484375 -18.453125 C 11.421875 -18.453125 11.34375 -18.40625 11.25 -18.3125 C 11.21875 -18.3125 11.171875 -18.28125 11.109375 -18.21875 L 10.921875 -18.171875 C 10.984375 -18.171875 11.015625 -18.15625 11.015625 -18.125 Z M 11.578125 -17.515625 C 11.515625 -17.453125 11.484375 -17.390625 11.484375 -17.328125 C 11.484375 -17.234375 11.546875 -17.15625 11.671875 -17.09375 C 11.796875 -17.15625 11.875 -17.21875 11.90625 -17.28125 L 12.046875 -17.46875 Z M 9.484375 -17 C 9.390625 -17 9.328125 -16.984375 9.296875 -16.953125 L 9.203125 -16.90625 L 9.296875 -16.90625 L 9.4375 -16.8125 Z M 15.3125 -16.390625 C 15.34375 -16.453125 15.347656 -16.5 15.328125 -16.53125 C 15.316406 -16.5625 15.3125 -16.59375 15.3125 -16.625 L 15.21875 -16.625 C 15.21875 -16.625 15.207031 -16.628906 15.1875 -16.640625 C 15.175781 -16.660156 15.171875 -16.671875 15.171875 -16.671875 L 15.078125 -16.671875 C 15.015625 -16.671875 14.941406 -16.625 14.859375 -16.53125 C 14.910156 -16.46875 14.941406 -16.394531 14.953125 -16.3125 C 14.972656 -16.238281 15 -16.171875 15.03125 -16.109375 L 15.171875 -16.15625 L 15.3125 -16.15625 Z M 10.421875 -16.25 C 10.484375 -16.28125 10.53125 -16.300781 10.5625 -16.3125 C 10.59375 -16.332031 10.617188 -16.359375 10.640625 -16.390625 L 10.640625 -16.34375 L 10.921875 -16.34375 L 10.921875 -16.4375 L 10.640625 -16.4375 L 10.640625 -16.390625 L 10.234375 -16.4375 C 10.078125 -16.4375 10 -16.375 10 -16.25 C 10 -16.125 10.0625 -16.0625 10.1875 -16.0625 Z M 10.734375 -15.78125 C 11.015625 -15.78125 11.171875 -15.875 11.203125 -16.0625 C 11.140625 -16.0625 11.09375 -16.078125 11.0625 -16.109375 L 10.921875 -16.15625 C 10.828125 -16.15625 10.726562 -16.109375 10.625 -16.015625 C 10.519531 -15.921875 10.46875 -15.859375 10.46875 -15.828125 Z M 10.140625 -15.546875 L 10.09375 -15.5 L 10.1875 -15.453125 L 10.234375 -15.5 Z M 14.890625 -14.203125 C 14.804688 -14.171875 14.734375 -14.1875 14.671875 -14.25 C 14.734375 -14.28125 14.765625 -14.328125 14.765625 -14.390625 C 14.828125 -14.484375 14.929688 -14.5625 15.078125 -14.625 L 15.265625 -14.71875 L 15.171875 -14.890625 C 15.109375 -14.953125 15.078125 -15 15.078125 -15.03125 C 15.078125 -15.125 15.09375 -15.1875 15.125 -15.21875 L 15.125 -15.359375 L 14.890625 -15.359375 C 14.867188 -15.390625 14.832031 -15.394531 14.78125 -15.375 C 14.738281 -15.363281 14.703125 -15.359375 14.671875 -15.359375 L 14.765625 -15.078125 L 14.671875 -15.03125 L 14.625 -14.9375 C 14.59375 -14.9375 14.578125 -14.921875 14.578125 -14.890625 L 14.484375 -14.625 L 14.4375 -14.390625 C 14.4375 -14.328125 14.46875 -14.265625 14.53125 -14.203125 C 14.59375 -14.171875 14.65625 -14.09375 14.71875 -13.96875 L 14.890625 -13.96875 C 14.953125 -13.96875 15.046875 -14 15.171875 -14.0625 C 15.171875 -14.0625 15.160156 -14.066406 15.140625 -14.078125 C 15.128906 -14.097656 15.125 -14.109375 15.125 -14.109375 L 15.125 -14.15625 C 15.0625 -14.1875 14.984375 -14.203125 14.890625 -14.203125 Z M 13.828125 -13.875 L 14.109375 -13.828125 L 14.109375 -13.921875 Z M 13.875 -4.671875 C 13.90625 -4.734375 13.921875 -4.859375 13.921875 -5.046875 C 13.921875 -5.109375 13.890625 -5.140625 13.828125 -5.140625 L 13.828125 -6.3125 C 13.859375 -6.457031 13.875 -6.6875 13.875 -7 C 13.875 -7.125 13.859375 -7.21875 13.828125 -7.28125 L 13.828125 -8.59375 L 13.78125 -8.6875 C 13.75 -8.71875 13.734375 -8.765625 13.734375 -8.828125 C 13.734375 -8.921875 13.75 -8.96875 13.78125 -8.96875 C 13.84375 -9.09375 13.859375 -9.21875 13.828125 -9.34375 L 13.78125 -9.53125 L 13.828125 -9.625 C 13.828125 -9.65625 13.832031 -9.675781 13.84375 -9.6875 C 13.863281 -9.707031 13.875 -9.734375 13.875 -9.765625 C 13.90625 -9.890625 13.90625 -10.015625 13.875 -10.140625 C 13.84375 -10.234375 13.828125 -10.359375 13.828125 -10.515625 C 13.796875 -10.597656 13.796875 -10.734375 13.828125 -10.921875 L 13.875 -11.296875 L 13.078125 -11.296875 L 13.078125 -8.40625 C 13.109375 -8.3125 13.125 -8.140625 13.125 -7.890625 C 13.125 -7.890625 13.09375 -7.859375 13.03125 -7.796875 L 12.984375 -7.75 C 12.984375 -7.6875 13.015625 -7.625 13.078125 -7.5625 L 13.125 -7.421875 C 13.15625 -7.296875 13.171875 -7.0625 13.171875 -6.71875 C 13.171875 -6.414062 13.15625 -6.171875 13.125 -5.984375 L 13.078125 -4.578125 C 13.078125 -4.515625 13.046875 -4.484375 12.984375 -4.484375 C 12.953125 -4.453125 12.9375 -4.40625 12.9375 -4.34375 C 12.9375 -4.28125 12.953125 -4.234375 12.984375 -4.203125 C 12.984375 -4.203125 12.988281 -4.191406 13 -4.171875 C 13.019531 -4.160156 13.03125 -4.15625 13.03125 -4.15625 C 13.09375 -3.96875 13.109375 -3.828125 13.078125 -3.734375 L 13.078125 -3.359375 L 13.03125 -3.265625 C 12.96875 -3.203125 12.96875 -3.171875 13.03125 -3.171875 L 13.21875 -3.125 L 13.21875 -2.9375 C 13.375 -2.84375 13.484375 -2.796875 13.546875 -2.796875 L 13.734375 -2.796875 L 13.78125 -2.9375 C 13.8125 -2.9375 13.828125 -2.984375 13.828125 -3.078125 L 13.828125 -3.171875 L 13.875 -3.171875 Z M 13.875 -4.671875 "/></g></g></g></svg>